<?xml version="1.0" encoding="UTF-8"?>
<svg id="Layer_2" xmlns="http://www.w3.org/2000/svg" viewBox="0 0 805.67 815.79">
  <defs>
    <style>
      .cls-1 {
        fill: #e57a18;
      }

      .cls-2 {
        fill: #49c7fa;
      }

      .cls-3 {
        fill: #e4cc38;
      }

      .cls-4 {
        fill: #feedd3;
      }

      .cls-5 {
        fill: #fafefd;
      }

      .cls-6 {
        fill: #fbfffa;
      }

      .cls-7 {
        fill: #fff;
      }

      .cls-8 {
        fill: #ff9305;
      }

      .cls-9 {
        fill: #fdfff5;
      }

      .cls-10 {
        fill: #ff7537;
      }

      .cls-11 {
        fill: #aab7c7;
      }

      .cls-12 {
        fill: #febf00;
      }

      .cls-13 {
        fill: #fabb00;
      }

      .cls-14 {
        fill: #e56423;
      }

      .cls-15 {
        fill: #fffa68;
      }

      .cls-16 {
        fill: #028ac6;
      }

      .cls-17 {
        fill: #0d8fcd;
      }

      .cls-18 {
        fill: #e8d668;
      }

      .cls-19 {
        fill: #aefcff;
      }

      .cls-20 {
        fill: #9bb4c8;
      }

      .cls-21 {
        fill: #dcad65;
      }

      .cls-22 {
        fill: #f9fffb;
      }

      .cls-23 {
        fill: #e8eae7;
      }

      .cls-24 {
        fill: #121a27;
      }

      .cls-25 {
        fill: #fcaf00;
      }

      .cls-26 {
        fill: #fffef6;
      }

      .cls-27 {
        fill: #0094d5;
      }

      .cls-28 {
        fill: #293144;
      }

      .cls-29 {
        fill: #feffff;
      }

      .cls-30 {
        fill: #2380c3;
      }

      .cls-31 {
        fill: #155b8e;
      }

      .cls-32 {
        fill: #57606f;
      }
    </style>
  </defs>
  <g id="Layer_1-2" data-name="Layer_1">
    <g id="Layer_5">
      <g>
        <path class="cls-2" d="M687.69,231.69c-4.68-4.68-12.37-8.21-19.1-7.91-12.32.55-25.7,9.98-26.99,23.02-6.69,17.04-13.58,34-20.66,50.88-.24.56-.49,1.16-.61,1.45-.87,2.05-1.74,4.09-2.61,6.13-2,4.67-4.01,9.33-6.04,13.99-3.68,8.44-7.4,16.85-11.18,25.25-15.5,34.44-31.84,68.5-49.01,102.14-4.53,8.87-9.12,17.71-13.76,26.52-1,.81-1.94,1.72-2.82,2.75-6.51,7.64-11.04,15.56-13.9,24.3-4.4,2.82-8.87,5.53-13.43,8.11-6.04,3.41-12.21,6.59-18.48,9.55-.47-.32-.95-.64-1.42-.97-.83-1.06-2.59-2.01-3.6-2.88-1.34-1.14-2.63-2.31-3.9-3.51,6.45-18.21,9.78-37.54,10.78-56.83.58-11.17-.21-22.36-.36-33.53,0-.62,0-1.25-.01-1.87,15.23,3.79,31.37.14,46.04-4.56,13.44-4.3,23.49-18.95,18.87-33.23-4.36-13.46-18.82-23.48-33.23-18.87-.14.04-.27.09-.41.13,5.5-14.82,9.53-30.24,12.95-45.6,2.34-10.5-1.01-22.82-10.17-29.13,1.96-8.65,3.14-17.54,3.49-26.61.1-2.67.12-5.35.08-8.03,2.92-7.39,5.54-14.96,7.72-22.66,2.48-4.78,4.65-9.76,6.49-14.93,4.69-13.2,5.9-26.58,4.37-39.61,1.53-3.44,3.06-6.88,4.6-10.31,3.07-6.83,4.79-13.31,2.72-20.81-.89-3.23-2.61-6.6-4.87-9.53,1.44-5.5,2.85-11.01,4.23-16.53,2.71.01,5.34-.3,7.49-.9,6.27-1.73,13.06-6.57,16.14-12.41,3.31-6.27,4.97-13.86,2.72-20.81-2.3-7.11-6.47-11.69-12.41-16.14-45.13-33.86-102.26-51.81-158.52-52.29-14.87-.13-29.57,1.34-44.27,3.51-6.41.95-12.77,2.16-19.08,3.64-7.39,1.74-14.56,4.8-21.71,7.33-29.73,10.51-60.42,20.54-87.36,37.28-29,18.02-52.61,43.28-64.31,75.62-17.01,21.57-31.73,44.74-41.53,70.9-9.52,25.43-12.43,53.37-11.58,80.39.82,26.33,4.69,52.91,11.76,78.3,7.26,26.07,18.04,51.5,32.12,74.68,2.33,9.28,7.31,18.3,12.32,26.28,12.41,19.77,28.85,35.38,47.38,49.29,15.59,11.7,32.72,21.21,50.16,29.83,8.94,4.42,17.99,8.62,27.07,12.73,11.51,5.21,23.38,10.39,35.99,11.27,3.25,1.64,6.62,3.01,10.1,4.1,1.66.59,3.35,1.13,5.1,1.61,7.24,4.9,15.58,7.29,24.67,7.98,9.07.68,17.88-4.95,22.87-12.74,1.49-1.36,2.82-2.83,3.86-4.28.53.23,1.06.45,1.59.67,4.67,8.8,13.58,15.17,23.97,14.98,20.61-.37,40.85-5.15,60.25-12.26,6.37,1.64,12.97,2.5,19.77,2.38,13.17-.24,25.85-10.69,26.95-24.08,6.61-3.73,13.08-7.71,19.4-11.93,3.51.69,7.7-.62,9.25-4,.48-1.04.97-2.08,1.45-3.12,2.9-.29,5.61-1.98,6.81-5.42,7.99-6.13,15.7-12.61,23.09-19.39,44.69-41.05,76.91-95.5,91.85-154.28,8.74-34.4,12-70.58,8.8-105.95-.66-7.3-2.57-13.76-7.91-19.1ZM517.74,338.22s.03-.04.05-.06c-.41.7-.98,1.42-1.36,1.85.43-.58.92-1.18,1.31-1.79ZM381.05,148.16c.82-1,1.64-2,2.48-2.99.33-.39.69-.76,1.03-1.15.06.01.12.02.17.04-1.88,2.18-3.71,4.4-5.47,6.65.59-.85,1.19-1.7,1.79-2.55ZM409.69,206.57c-.07.48-.15.96-.23,1.44-.03.2-.08.39-.11.59.06-.44.19-1.25.41-2.6-.02.18-.05.37-.07.57ZM368.17,157.53c-2.9,4.94-1.31,1.7,0,0h0ZM505.73,365.84s0,0-.01,0c.02-.1.05-.21.07-.31-.01.08-.03.18-.06.31Z"/>
        <path class="cls-2" d="M751.78,468.58c-14.64.66-27.01,11.87-27.01,27.01v1.01c0,14.13,12.42,27.67,27.01,27.01,14.64-.66,27.01-11.87,27.01-27.01v-1.01c0-14.13-12.42-27.67-27.01-27.01Z"/>
        <path class="cls-2" d="M89.92,399.54c-1.28-4.58-3.6-8.55-6.95-11.92-1.82-1.41-3.64-2.82-5.47-4.22-4.21-2.44-8.76-3.67-13.63-3.69h-1.83c-3.72-.14-7.19.64-10.41,2.33-3.35,1.09-6.25,2.95-8.69,5.59-2.63,2.45-4.5,5.34-5.59,8.69-1.69,3.22-2.47,6.69-2.33,10.41.32,2.39.64,4.79.96,7.18,1.28,4.58,3.6,8.55,6.95,11.92,1.82,1.41,3.64,2.82,5.47,4.22,4.21,2.44,8.76,3.67,13.63,3.69h1.83c3.72.14,7.19-.64,10.41-2.33,3.35-1.09,6.25-2.95,8.69-5.59,2.63-2.45,4.5-5.34,5.59-8.69,1.69-3.22,2.47-6.69,2.33-10.41-.32-2.39-.64-4.79-.96-7.18Z"/>
        <path class="cls-2" d="M70.39,481.77h-1.01c-9.68,0-18.96,8.51-18.51,18.51.45,10.03,8.13,18.51,18.51,18.51h1.01c9.68,0,18.96-8.51,18.51-18.51-.45-10.03-8.13-18.51-18.51-18.51Z"/>
        <path class="cls-2" d="M787.34,290.16c-5.99-2.88-12.58-4.29-19.25-3.96-3.51.17-7.03.74-10.5,1.27-.2.03-.37.06-.5.08-.1,0-.2,0-.33.01-1.62.08-3.18.2-4.81.2-1.51,0-3.01.2-4.46.59-1.85-.95-3.87-1.62-5.98-1.9-8.81-1.18-18.1,4.26-20.31,13.26-2.57,10.5-2.51,21.69,1.41,31.87,2.77,7.19,9.29,14.25,17.85,13.59,10.52-.82,21.04-1.64,31.56-2.45,6.46-.5,12.96-.93,18.7-4.26,5.93-3.45,10.48-9.5,11.93-16.23,2.75-12.72-3.45-26.35-15.32-32.06ZM775.64,305.41c-.42.04-.84.07-1.25.1.01,0,.03-.02.04-.03,2.21-.17,2.61-.2,1.21-.08Z"/>
      </g>
      <path class="cls-13" d="M79.57,282.83c-8.47-7-19.39-8.79-29.13-3.07-8.42,4.94-12.85,14.42-12.72,23.99.14,9.72,4.77,20.57,13.55,25.43,10.49,5.81,23.44,1.9,30.53-7.28,5.52-7.15,8.12-16.56,5.78-25.5-2.54-9.72-10.19-17.08-20.21-18.43-9.36-1.26-19.34,3.07-24.26,11.34-2.84,4.77-3.84,10.68-2.52,16.09,1.4,5.77,5.16,8.9,9.37,12.51,6.78,5.82,17.6,7.16,24.17,0,5.87-6.39,7.25-17.95,0-24.17-1.61-1.38-3.23-2.77-4.84-4.15l4.4,7.54c1,6.24-.94,12.53-7.37,14.47,1.29-.32,1.09-.32-.62,0-1.44.35-2.88.28-4.32-.21-2.09-.6-4-1.89-5.31-3.59-.62-.81-2.02-4.91-1.44-2.3-.26-2.73-.39-3.42-.38-2.05-.03.93.02.68.16-.75.26-1.59.23-1.67-.09-.25l.99-2.15c-.21.47-.46.91-.75,1.34-.67,1.04-.34.59.98-1.36,4.17-4.35,13.36-2.31,16.21,2.58.89,1.53,1,3.03.26.45-.7-2.41-.26-1.43-.1.44-.29-3.59-1.03,3.33-.02-.05-.59,1.95-1.55,3.55-3.21,4.8-.64.48-4.67,2-2.48,1.47-4.14,1.01-7.35-.12-10.79-2.97,6.88,5.69,17.52,7.24,24.17,0,5.78-6.29,7.36-18.08,0-24.17h0Z"/>
      <path class="cls-13" d="M756.06,389.14c-7.88-1.52-15.82.05-21.66,5.88-5.09,5.07-7.69,12.13-6.73,19.25,1.83,13.59,16.09,22.5,29.26,18.36,14.81-4.66,20.16-22.59,12.49-35.55-7.34-12.4-24.98-16.68-35.72-5.9-4.32,4.33-6.82,10.67-6.63,16.78.31,9.51,6.24,16.59,15,19.69,4,1.42,9.61.36,13.17-1.72,3.55-2.07,6.93-6.14,7.85-10.21,2.18-9.57-2.9-17.82-11.94-21.02l-.44-.16c1.36.57,2.72,1.15,4.08,1.72-.27-.12-.52-.27-.74-.45,1.15.89,2.31,1.78,3.46,2.67-.22-.18-.41-.38-.57-.61l2.67,3.46c-.16-.23-.3-.47-.4-.73l1.72,4.08c-.15-.43-.24-.81-.3-1.26.2,1.51.41,3.03.61,4.54-.03-.47-.01-.9.04-1.37l-.61,4.54c.09-.48.2-.9.35-1.36-.57,1.36-1.15,2.72-1.72,4.08.25-.59.54-1.11.92-1.62l-2.67,3.46c.19-.24.41-.46.64-.66-1.15.89-2.31,1.78-3.46,2.67.38-.29.73-.5,1.17-.7-1.36.57-2.72,1.15-4.08,1.72.29-.11.59-.19.9-.23l-4.54.61c.42-.05.84-.06,1.26-.02l-4.54-.61c.64.1,1.17.25,1.77.48-1.36-.57-2.72-1.15-4.08-1.72.58.3,1.06.6,1.58,1-1.15-.89-2.31-1.78-3.46-2.67.49.45.9.88,1.32,1.4-.89-1.15-1.78-2.31-2.67-3.46.38.55.7,1.09,1,1.69-.57-1.36-1.15-2.72-1.72-4.08.34.83.58,1.63.73,2.52l-.61-4.54c.07.73.06,1.37,0,2.11l.61-4.54c-.14.84-.32,1.53-.64,2.33l1.72-4.08c-.19.41-.43.79-.71,1.14.89-1.15,1.78-2.31,2.67-3.46-.23.27-.48.51-.76.73,1.15-.89,2.31-1.78,3.46-2.67-.45.31-.87.53-1.37.75,1.36-.57,2.72-1.15,4.08-1.72-.53.17-1,.27-1.55.35l4.54-.61c-.55.03-1.06.02-1.61-.04l4.54.61c-.55-.1-1.03-.23-1.55-.42,1.36.57,2.72,1.15,4.08,1.72-.5-.23-.92-.47-1.37-.78,1.15.89,2.31,1.78,3.46,2.67-.28-.21-.53-.45-.76-.72.89,1.15,1.78,2.31,2.67,3.46-.34-.45-.58-.84-.81-1.36l1.72,4.08c-.15-.38-.24-.78-.28-1.19l.61,4.54c-.04-.4-.03-.8.02-1.2l-.61,4.54c.06-.4.16-.79.3-1.17l-1.72,4.08c.25-.59.52-1.08.88-1.61l-2.67,3.46c.41-.5.8-.9,1.3-1.32-1.15.89-2.31,1.78-3.46,2.67.52-.37,1-.64,1.59-.9-1.36.57-2.72,1.15-4.08,1.72.38-.14.76-.24,1.16-.3l-4.54.61c.4-.05.8-.06,1.2,0l-4.54-.61.61.12c4.57.88,9.04.69,13.17-1.72,3.55-2.07,6.93-6.14,7.85-10.21,1.92-8.45-2.55-19.21-11.94-21.02h0Z"/>
      <path class="cls-13" d="M639.88,396.29h1.83c2.35.09,4.55-.4,6.58-1.47,2.12-.69,3.95-1.87,5.5-3.53,1.67-1.55,2.84-3.38,3.53-5.5,1.07-2.04,1.56-4.23,1.47-6.58-.2-1.51-.41-3.03-.61-4.54-.81-2.9-2.28-5.41-4.4-7.54-1.15-.89-2.31-1.78-3.46-2.67-2.67-1.55-5.54-2.32-8.63-2.33h-1.83c-2.35-.09-4.55.4-6.58,1.47-2.12.69-3.95,1.87-5.5,3.53-1.67,1.55-2.84,3.38-3.53,5.5-1.07,2.04-1.56,4.23-1.47,6.58l.61,4.54c.81,2.9,2.28,5.41,4.4,7.54,1.15.89,2.31,1.78,3.46,2.67,2.67,1.55,5.54,2.32,8.63,2.33h0Z"/>
      <path class="cls-13" d="M222.29,434.84c-8.32,6.99-14.76,18.32-11.57,29.48,3.43,11.97,16.01,21.41,28.73,17.53,7.79-2.37,12.34-8.61,13.77-16.45,1.33-7.35.72-14.77-3.97-20.85-3.88-5.02-9.02-7.84-15.28-8.68-8.74-1.17-15.14,3.03-20.21,9.71-2.49,3.29-2.76,9.39-1.72,13.17,1.09,3.96,4.16,8.26,7.85,10.21,3.97,2.1,8.77,3.15,13.17,1.72,4.51-1.46,7.37-4.11,10.21-7.85-5.11,2.14-10.23,4.27-15.34,6.41l-2.57-1.16c-2.73-1.67-5.05-4.72-5.38-7.92-.07-.69.47-3.95.05-2.64-.31.96-.51,1.99-.8,2.96,2.62-3.4,5.24-6.81,7.85-10.21,6.51-2.83,12.32-2.15,15.96,3.41-.87-1.56-.66-1.05.64,1.55.52,1.68.6,3.37.25,5.08-1.1,2.34-1.21,2.7-.31,1.07-1.59,1.91-1.77,2.16-.56.76,1.13-1.05,2.21-2.14,3.4-3.14,6.87-5.77,6.4-18.3,0-24.17-7.31-6.71-16.84-6.16-24.17,0h0Z"/>
      <path class="cls-13" d="M316.76,515.5l.48-.26c-1.36.57-2.72,1.15-4.08,1.72.52-.22.99-.36,1.54-.48l-4.54.61c.56-.06,1.05-.08,1.61-.04l-4.54-.61c.74.1,1.41.28,2.11.54-1.36-.57-2.72-1.15-4.08-1.72.68.32,1.28.68,1.88,1.13-1.15-.89-2.31-1.78-3.46-2.67.42.37.77.74,1.13,1.17l-2.67-3.46c.32.46.56.89.8,1.4l-1.72-4.08c.19.54.3,1.02.38,1.58l-.61-4.54c.03.38.02.76-.03,1.14l.61-4.54c-.1.58-.24,1.07-.46,1.62l1.72-4.08c-.26.53-.53.97-.88,1.45l2.67-3.46c-.38.45-.76.83-1.21,1.21,1.15-.89,2.31-1.78,3.46-2.67-.63.46-1.26.83-1.98,1.14,1.36-.57,2.72-1.15,4.08-1.72-.56.19-1.06.32-1.64.41l4.54-.61c-.59.04-1.09.03-1.68-.04,1.51.2,3.03.41,4.54.61-.38-.07-.74-.17-1.1-.31,1.36.57,2.72,1.15,4.08,1.72-.5-.23-.91-.47-1.35-.79,1.15.89,2.31,1.78,3.46,2.67-.4-.35-.73-.7-1.07-1.11l2.67,3.46c-.3-.44-.55-.87-.78-1.35l1.72,4.08c-.26-.67-.45-1.32-.57-2.03l.61,4.54c-.07-.71-.07-1.38.01-2.1l-.61,4.54c.1-.53.23-.99.41-1.5-.57,1.36-1.15,2.72-1.72,4.08.22-.49.46-.9.77-1.34-.89,1.15-1.78,2.31-2.67,3.46.21-.28.45-.53.72-.77,6.43-6.24,6.73-17.99,0-24.17-6.91-6.34-17.31-6.65-24.17,0-7.77,7.54-9.3,20.74-3.23,29.79,3.79,5.65,9.2,9.46,16,10.37,5.63.76,11.12-.26,15.97-3.36,10.53-6.75,14.8-21.1,7.76-31.95-6.97-10.75-20.89-14.3-32.14-8.19-7.86,4.27-11.03,15.79-6.13,23.38,5.14,7.98,14.97,10.7,23.38,6.13h0Z"/>
      <g>
        <path class="cls-5" d="M530.58,97.76c-8.4-6.89-16.57-14.03-24.51-21.43,1.25-4.5-3.11-9.97-8.05-7.64-.12-.12-.25-.23-.37-.35-5.12-4.98-12.69,1.56-10.03,6.96-8.04,5.17-16.08,10.34-24.12,15.51-.4-1.09-1.11-2.11-2.23-2.95-19.13-14.38-41.57-24.02-65.15-28.02-.03-.43-.1-.88-.22-1.34-2.42-8.98-4.83-17.96-7.25-26.94,3.84-3.34,2.61-11.21-3.76-10.88-13.49.69-26.98.48-40.44-.64-5.13-.43-6.91,4.6-5.39,8.38-1.94,10.39-4.64,20.58-8.09,30.55-2.92-.27-6.35.43-9.22.92-7.8,1.35-15.48,3.39-22.92,6.05-12,4.3-23.17,10.13-33.61,17.28-.17-.11-.34-.22-.53-.32-8.54-4.6-16.99-9.72-25.76-13.85-.05-.03-.11-.04-.16-.07-1.25-1.32-2.47-2.68-3.64-4.11-4.09-4.97-10.57-.16-10.21,5.09-1.97,1.26-3.88,2.91-5.85,4.74-7.02,6.54-14.62,12.8-21.21,19.76-6.23,6.57-2.81,12.25,1.11,18.98,2.27,3.91,4.55,7.82,6.82,11.73,1.89,3.25,4.73,6.82,6.29,10.39-.28,1.38-.13,2.89.45,4.23-.35.55-.89,1.13-1.6,2.04-1.19,1.52-2.38,3.04-3.52,4.59-2.49,3.39-4.8,6.92-6.89,10.58-7.83,13.66-12.63,28.55-14.79,44.09-.2.23-.39.48-.56.73-8.47,2.18-17.03,3.99-25.66,5.34-2.74-1.54-6.65-.99-8.42,1.63-2.02.98-3.45,2.78-3.47,5.38-.02,1.85,1.08,3.94,2.71,5.16.34,13.55.68,27.1,1.03,40.65.2,7.93,12.54,7.96,12.34,0-.34-13.64-.69-27.29-1.03-40.93,8.75-1.4,17.42-3.16,26.03-5.38,1-.26,1.8-.68,2.45-1.22.1.05.2.1.29.16,3.2,1.7,8.36.43,9.06-3.69,3.96-23.18,12.08-45.18,24.24-65.3.55-.91.83-1.8.9-2.66.63-.55,1.21-1.17,1.7-1.87,3.24-4.58,1.04-8.18-1.37-12.56-4.44-8.05-9.32-16.02-13.49-24.23,7.21-5.71,13.69-12.12,19.48-19.27,1.02.13,2.04-.05,2.98-.47,6.73,6.13,14.41,11.17,22.77,14.9.85.91,2.03,1.56,3.54,1.72,1.7,1.17,3.96,1.54,6.31.3,19.25-10.18,39.37-18.34,60.26-24.5,1.47-.43,2.53-1.23,3.23-2.21,3.1,1.5,7.67.75,9.29-3.44,4.57-11.86,8.05-24.03,10.45-36.49,8.53.53,17.06.7,25.6.5,2.55,9.48,5.1,18.97,7.66,28.45.15.55.35,1.04.6,1.48-.03.09-.07.16-.1.25-.83,2.88,1.01,7.12,4.31,7.59,24.17,3.42,46.72,12.75,66.23,27.42.93.7,1.86,1.06,2.75,1.16,1,3.57,4.82,6.36,8.83,3.78,9.95-6.4,19.9-12.8,29.86-19.2,8.22,7.68,16.68,15.09,25.37,22.23,6.09,5,14.87-3.68,8.72-8.72Z"/>
        <path class="cls-5" d="M465.62,237.21c1.78,40.74-23.72,80.38-62,94.93-39.73,15.1-85.15,4.49-114.29-26.28-15.39-16.26-25.55-36.76-29.55-58.75-1.42-7.8-13.31-4.5-11.9,3.28,8.02,44.08,40.52,82.9,83.76,95.94,44.95,13.56,95.23-1.01,123.82-38.65,15.25-20.07,23.59-45.22,22.49-70.47-.35-7.91-12.69-7.95-12.34,0Z"/>
        <path class="cls-5" d="M215.78,313.35c-4.5-6.02-7.27-13.22-9.96-20.17-2.83-7.33-14.77-4.14-11.9,3.28,4.83,12.5,10.02,23.89,20.34,32.8,3.29,2.84,1.84,5.13,0,8.64-1.71,3.28-3.53,6.51-5.4,9.7-3.91,6.65-8.16,13.08-12.68,19.33-4.66,6.45,6.04,12.61,10.65,6.23,5.06-7,9.78-14.23,14.07-21.73,3.66-6.39,9.06-14.14,7.64-21.88-1.36-7.43-8.56-10.57-12.77-16.2Z"/>
      </g>
      <path class="cls-4" d="M535.99,511.86c-8.22-1.88-14.15,1.8-19.18,7.05-1.16-11.83-6.49-23.16-15.79-31.41-1.94-1.72-5.29-1.85-7.55-.54-3.36-3-7.42-6.01-11.76-6.04-1.66-.01-3.19.41-4.52,1.15-3.97-3.21-8.07-6.25-12.35-9.03-4.32-2.81-9.47-6.75-14.92-6.36-1.32.09-2.52.46-3.57,1-3.25-2.36-6.53-4.68-9.86-6.93-3.29-2.22-6.69-4.76-10.9-3.98-4.62.86-6.64,4.4-6.8,8.32-1.19.09-2.37.36-3.55.81-.16.04-.32.09-.48.13-1.84-.25-3.69-.04-5.44.71-.38-2.09-.78-4.17-1.22-6.25-.11-.5-.28-.94-.49-1.35-.69-5.04-7.81-8.46-10.71-2.84-.6,1.17-1.13,2.35-1.6,3.55-1.1.91-1.84,2.35-1.81,4.35,0,.38.02.75.03,1.13-2.09,8.14-1.97,16.66-1.34,25.21,1.01,13.82,2.16,27.63,3.23,41.45.21,2.74,1.67,4.61,4.22,5.55,8.34,3.08,16.69,6.16,25.03,9.24,7.36,2.72,15.11,4.99,22.15,8.49,5.81,2.88,8.86,5.87,10.66,12.04,1.71,5.83,6.36,10.43,12.84,8.27,6.27-2.09,12.34-7.88,17.61-11.78,5.46-4.04,10.81-8.24,15.84-12.81.56-.12,1.12-.33,1.67-.65,9.45-5.57,18.9-11.14,28.35-16.72,3.77-2.22,3.35-6.49,1.02-8.9,1.23-1.08,2.47-2.16,3.7-3.24,3.22-2.82,1.53-8.68-2.54-9.61ZM416.31,504.97c.55.93,1.12,1.86,1.71,2.77,0,1.12.03,2.25.12,3.39-.09-.18-.18-.36-.27-.52-.52-1.02-.97-2.07-1.36-3.14-.09-.29-.18-.59-.27-.88,0-.54.02-1.08.06-1.61ZM411.86,527.8c.57.77,1.19,1.53,1.84,2.27.07.14.15.27.22.4-.75-.27-1.5-.53-2.26-.8.07-.62.13-1.25.2-1.87Z"/>
      <path class="cls-21" d="M466.48,578.3c24.67-15.95,48.44-33.22,71.29-51.68,5.76-4.65-2.42-12.75-8.13-8.13-22.09,17.84-45.12,34.47-68.96,49.88-6.2,4.01-.44,13.97,5.81,9.93h0Z"/>
      <path class="cls-21" d="M466.77,573.25c19.47-13.59,38.94-27.18,58.41-40.78,6.03-4.21.28-14.18-5.81-9.93-19.47,13.59-38.94,27.18-58.41,40.78-6.03,4.21-.28,14.18,5.81,9.93h0Z"/>
      <path class="cls-12" d="M480.63,468.83c1.57-7.99.59-15.38-3.06-22.68-2.13-4.27-7.55-3.14-9.93,0-5.49,7.24-7.08,16.05-5.54,24.88,1.1,6.33,11.87,4.94,11.3-1.53-.44-4.96-1.33-9.71-2.97-14.43-1.73-4.98-9.82-5.94-11.09,0-1.36,6.35-1.83,12.66-1.15,19.13,3.77-.51,7.53-1.02,11.3-1.53-1.43-5.84-2.87-11.67-4.3-17.51s-9.11-4.82-11.09,0c-5.16,12.53,2.02,27.91,14.2,33.2,15.52,6.73,31.13-4.81,38.68-17.85,4.5-7.76,7.3-16.46,10.54-24.79,3.52-9.02,7.18-17.98,11.02-26.87,7.57-17.56,15.73-34.87,24.44-51.9,9.84-19.22,20.41-38.06,31.64-56.51,3.87-6.36-5.92-11.99-9.93-5.81-23.27,35.87-44.77,72.85-64.43,110.82-3.4,6.56,6.44,12.36,9.93,5.81,15.86-29.75,31.14-59.8,45.85-90.13,3.19-6.59-6.18-12.3-9.93-5.81-24.16,41.75-48.3,83.62-67.77,127.82-2.91,6.61,6.31,12.46,9.93,5.81,7.04-12.91,14.07-25.83,21.11-38.74,3.54-6.5-6.39-12.32-9.93-5.81-7.04,12.91-14.07,25.83-21.11,38.74,3.31,1.94,6.62,3.87,9.93,5.81,19.47-44.2,43.62-86.07,67.77-127.82-3.31-1.94-6.62-3.87-9.93-5.81-14.71,30.33-30,60.38-45.85,90.13,3.31,1.94,6.62,3.87,9.93,5.81,19.66-37.97,41.17-74.95,64.43-110.82-3.31-1.94-6.62-3.87-9.93-5.81-17.16,28.2-32.76,57.33-46.63,87.29-6.82,14.72-13.23,29.64-19.24,44.72-5.23,13.12-9.14,31.44-22.08,39.31-5.92,3.6-12.95,4.08-18.08-1.05-4.52-4.51-5.87-10.82-3.46-16.69h-11.09c1.43,5.84,2.87,11.67,4.3,17.51,1.51,6.14,11.98,5.04,11.3-1.53-.57-5.43-.41-10.72.74-16.07h-11.09c1.29,3.72,2.21,7.43,2.56,11.37,3.77-.51,7.53-1.02,11.3-1.53-1.03-5.92.83-11.33,4.38-16.02h-9.93c2.18,4.36,2.84,9.02,1.9,13.81-1.42,7.23,9.67,10.33,11.09,3.06h0Z"/>
      <path class="cls-12" d="M641.54,169.47c-3.9-3.45-8.36-5.98-13.1-7.5-1.21-3.5-3.55-6.56-7.2-8.49-8.07-4.27-18.71-2.2-23.38,6.13-2.4,4.27-4.8,8.55-7.19,12.82-3.78,4.11-6.56,9.08-7.67,14.68-.27,1.36-.39,2.7-.4,4.03-25.94,53.57-51.87,107.13-77.81,160.7-8.8,18.18-17.6,36.36-26.41,54.54-.88,1.81-1.47,3.76-1.78,5.74-.94,2.21-1.84,4.43-2.68,6.68-4.47,9.84-8.62,19.82-12.44,29.93-1.1,2.92-1.02,6-.14,8.89-.64,1.6-1.29,3.2-1.93,4.8-3.34,8.32,3.64,19.13,11.94,21.02,5.16,1.18,9.67.28,13.33-2.09.09-.01.17-.02.26-.04,10.71-1.67,18.38-10.91,23.09-20,4.99-9.63,9.75-19.4,14.62-29.09l29.5-58.73c19.67-39.15,39.33-78.31,59-117.46,11.02-21.95,22.05-43.9,33.07-65.85,3.26-6.48,3.2-15.51-2.67-20.71Z"/>
      <path class="cls-15" d="M558.27,126.04c-3.58,1.29-5.77,2.28-8.54,4.97-1.32,1.28-2.48,2.77-3.37,4.38-2.6,4.66-3.44,10.24-1.94,15.42.53,2.22,1.55,4.16,3.06,5.81,1.21,1.86,2.8,3.33,4.8,4.4,1.96,1.25,4.08,1.92,6.35,2.03,2.27.51,4.54.41,6.82-.31,1.36-.57,2.72-1.15,4.08-1.72,2.57-1.52,4.61-3.56,6.13-6.13l1.72-4.08c.81-3.03.81-6.06,0-9.09-.06-.19-.09-.37-.12-.57l.61,4.54c-.01-.2-.01-.38,0-.58l-.61,4.54c.04-.33.13-.63.25-.93-.57,1.36-1.15,2.72-1.72,4.08.11-.24.24-.45.39-.67l-2.67,3.46c.17-.2.34-.38.54-.55-1.15.89-2.31,1.78-3.46,2.67.21-.16.42-.28.66-.39-1.36.57-2.72,1.15-4.08,1.72l.18-.07c2.22-.53,4.16-1.55,5.81-3.06,1.86-1.21,3.33-2.8,4.4-4.8,1.25-1.96,1.92-4.08,2.03-6.35.51-2.27.41-4.54-.31-6.82l-1.72-4.08c-1.52-2.57-3.56-4.61-6.13-6.13-1.36-.57-2.72-1.15-4.08-1.72-3.03-.81-6.06-.81-9.09,0h0Z"/>
      <path class="cls-8" d="M687.26,188.78c-5-2.22-10-4.44-14.99-6.65-7.88-3.5-19.06-2.91-23.38,6.13-34.38,71.84-68.75,143.68-103.13,215.53-9.74,20.36-19.48,40.71-29.22,61.07-1.16,2.43-1.84,5.11-2,7.79-.88,1.07-1.71,2.19-2.46,3.37-1.08,1.71-1.97,3.53-2.66,5.4-.55,1.11-1.01,2.29-1.38,3.53-.76,2.53-.79,5.23-.24,7.82.07.78.17,1.56.32,2.33-.28,2.16-.08,4.37.74,6.49,3.88,9.98,10.43,16.76,20.5,20.58,8.66,3.28,18.95,2.26,26.99-2.18,16.26-8.97,19.16-30.53,10.19-45.43.88-1.91,1.75-3.77,2.6-5.53,9.99-20.66,19.98-41.31,29.97-61.97,20.13-41.61,40.26-83.23,60.38-124.84,11.29-23.35,22.59-46.7,33.88-70.05,3.67-7.58,2.82-19.41-6.13-23.38Z"/>
      <path class="cls-6" d="M599.81,154.92c-38.63,81.12-77.27,162.25-115.9,243.37-10.87,22.83-21.75,45.67-32.62,68.5-1.99,4.18-1.16,9.27,3.08,11.75,3.74,2.19,9.75,1.12,11.75-3.08,38.63-81.12,77.27-162.25,115.9-243.37,10.87-22.83,21.75-45.67,32.62-68.5,1.99-4.18,1.16-9.27-3.08-11.75-3.74-2.19-9.75-1.12-11.75,3.08h0Z"/>
      <path class="cls-25" d="M646.82,180.27c-37.84,80.89-75.68,161.77-113.52,242.66-10.73,22.94-21.46,45.88-32.19,68.81-1.96,4.2-1.18,9.26,3.08,11.75,3.72,2.18,9.77,1.14,11.75-3.08,37.84-80.89,75.68-161.77,113.52-242.66,10.73-22.94,21.46-45.88,32.19-68.81,1.96-4.2,1.18-9.26-3.08-11.75-3.72-2.18-9.77-1.14-11.75,3.08h0Z"/>
      <path class="cls-6" d="M548.88,127.57c-35.51,82.22-74.08,163.11-115.67,242.43-11.88,22.66-24.02,45.19-36.38,67.59-5.34,9.68,9.48,18.36,14.83,8.67,43.28-78.41,83.63-158.43,120.88-239.88,10.64-23.27,21.03-46.66,31.17-70.15,1.84-4.25,1.26-9.21-3.08-11.75-3.62-2.12-9.9-1.2-11.75,3.08h0Z"/>
      <path class="cls-3" d="M590.15,150.77c-6.45-11.37-19.76-18.11-32.61-14.33-12.97,3.82-17.67,17.47-22.98,28.42-10.55,21.76-21.1,43.52-31.65,65.29-20.73,42.75-41.45,85.5-62.18,128.26-7.56,11.3-13.82,23.44-18.63,36.19-7.73,1.65-14.54,8.21-14.1,16.69.02.37.04.67.07.91-.07.21-.12.37-.14.47-1.14,2.02-2.26,4.06-3.37,6.1-3,5.52-4.96,10.93-5.26,17.24-.45,9.57,3.66,18.88,11.12,24.03-1.46,7.73,7.51,14.24,14.27,8.01,1.47-1.35,2.81-2.79,4.1-4.28,2.64,5.83,11.48,8.52,15.03,1.26,13.79-28.2,27.41-56.47,40.9-84.81l51.06-95.2c11.28-21.04,22.57-42.08,33.85-63.12,5.61-10.47,11.36-20.87,16.84-31.41,6.32-12.16,11.02-26.81,3.69-39.72Z"/>
      <path class="cls-3" d="M413.43,458.39c21.19-41.9,42.41-83.79,63.58-125.7,20.33-40.24,40.51-80.59,58.6-121.9,10.35-23.64,20.05-47.56,28.72-71.87,3.24-9.07-11.56-15.45-15.69-6.62-30.71,65.62-61.42,131.24-92.14,196.86-8.73,18.66-17.47,37.32-26.2,55.99,5.23,2.21,10.46,4.41,15.69,6.62,12.77-39.44,31.18-76.73,54.52-110.98,6.24-9.16-8.63-17.76-14.83-8.67-24.15,35.44-43.04,74.28-56.25,115.08-2.95,9.11,11.53,15.51,15.69,6.62,30.71-65.62,61.42-131.24,92.14-196.86,8.73-18.66,17.47-37.32,26.2-55.99-5.23-2.21-10.46-4.41-15.69-6.62-30.27,84.83-72.91,164.62-113.48,244.81-11.9,23.52-23.79,47.04-35.69,70.55-4.98,9.84,9.83,18.54,14.83,8.67h0Z"/>
      <path class="cls-6" d="M550.13,127.33c-39.54,81.18-79.09,162.36-118.63,243.55-11.24,23.07-22.47,46.13-33.71,69.2-4.82,9.9,9.98,18.61,14.83,8.67,39.54-81.18,79.09-162.36,118.63-243.55,11.24-23.07,22.47-46.13,33.71-69.2,4.82-9.9-9.98-18.61-14.83-8.67h0Z"/>
      <path class="cls-11" d="M579.79,104.93c-4.87-1.79-9.75-3.58-14.62-5.38-6.42-2.36-12.02,4.67-10.56,10.56,2.21,8.92,9.28,15.99,18.29,17.98,8.63,1.91,13.95-7.84,8.35-14.35-5.03-5.86-12.04-8.78-19.66-9.14-9.13-.42-10.84,11.49-4.33,16,43.65,30.25,90.64,55.22,139.97,74.86,4.53,1.81,9.14-2.03,10.56-6,1.66-4.66,3.33-9.32,4.99-13.98,1.18-3.29-.73-8.17-3.95-9.7-25.73-12.16-51.46-24.33-77.19-36.49-12.57-5.94-25.13-11.88-37.7-17.82-3.29-1.56-6.58-3.11-9.87-4.67-1.5-.71-2.99-1.41-4.49-2.12-.8-.36-1.59-.74-2.37-1.14-1.43-.87-1.23.04.6,2.74.91.02,6.24-18.25,6.86-20.05h-16.56c2.39,14.53,20.32,21.12,31.54,27.42,14.78,8.3,29.56,16.6,44.35,24.9,9.75,5.48,17.7-8.63,8.67-14.83-22.8-15.64-46.58-29.74-71.24-42.24-9.91-5.02-17.8,8.61-8.67,14.83,20.37,13.88,41.75,26.15,64.01,36.73,10.15,4.82,17.42-8.22,8.67-14.83-15.97-12.06-31.93-24.11-47.9-36.17-2.89,4.94-5.78,9.89-8.67,14.83,25.03,14.49,50.06,28.98,75.08,43.47,9.58,5.55,18.19-9.21,8.67-14.83-16.53-9.74-33.48-18.71-50.84-26.88-2.89,4.94-5.78,9.89-8.67,14.83,23.84,10.7,47.12,22.59,69.75,35.65,2.89-4.94,5.78-9.89,8.67-14.83-14.62-6.87-29.75-12.47-45.4-16.52-9.77-2.53-14.43,10.26-6.62,15.69,19.74,13.74,41.37,24.45,64.16,32.12,3.75,1.26,7.65-.89,9.7-3.95,3.74-5.58,6.47-11.74,8.22-18.22-5.52-1.52-11.04-3.04-16.56-4.57-1.83,7.01-3.65,14.03-5.48,21.04-1.88,7.21,6.08,13.51,12.61,9.7,5.16-3.01,9.3-7.2,12.09-12.49,2.33-4.41.82-8.92-3.08-11.75-22.29-16.17-48.4-26.52-73.26-37.99-12.4-5.72-24.74-12.35-37.65-16.85-12.21-4.25-24.59-4.49-35.1,3.72-3.48,2.72-3.2,9.39,0,12.14,10.9,9.39,23,16.5,36.48,21.51,3.96,1.47,8.66-1.32,10.13-4.97,1.7-4.22.05-8.14-3.51-10.72-7.05-5.12-14.51-10.43-19.66-17.58-4.32-6-7.62-14.79-4.42-22.03,4.4-9.94-8.69-18.15-14.83-8.67-2,3.09-4,6.18-6,9.27,5.23,2.21,10.46,4.41,15.69,6.62,1.78-6.39,4.45-12.11,8.1-17.66-3.92,1.03-7.83,2.05-11.75,3.08,13.05,8.78,25.89,17.86,38.52,27.23,2.89-4.94,5.78-9.89,8.67-14.83-12.49-8.94-26.87-15.09-41.95-17.97-3.78-.72-7.67.48-9.7,3.95-1.76,3-1.61,8.1,1.34,10.41,23.01,17.92,48.38,31.9,75.93,41.54,5.58,1.96,10.55-3.09,10.87-8.28.8-13.05-13.88-19.41-23.14-25.15-11.56-7.17-23.12-14.33-34.67-21.5-2.89,4.94-5.78,9.89-8.67,14.83,20.77,9.22,41.1,19.35,60.96,30.4,9.88,5.5,17.38-8.4,8.67-14.83-22.58-16.66-47.17-30.04-73.22-40.42-9.12-3.63-14.97,11.05-6.62,15.69,26.32,14.64,52.13,30.15,77.41,46.52,8.04,5.21,18.07-7.3,10.41-13.49-15.57-12.56-32.12-23.73-49.75-33.2-2.89,4.94-5.78,9.89-8.67,14.83,23.55,12.46,46.84,25.43,69.83,38.89,2.89-4.94,5.78-9.89,8.67-14.83-10.63-5.9-21.27-11.81-31.9-17.71-2.21,5.23-4.41,10.46-6.62,15.69,14.02,5.19,27.66,11.21,40.97,18.02,9.8,5.01,18.48-9.65,8.67-14.83l-59.14-31.22c-2.89,4.94-5.78,9.89-8.67,14.83,20.99,9.41,41.47,19.86,61.4,31.34,2.89-4.94,5.78-9.89,8.67-14.83-14.75-8.13-29.5-16.25-44.25-24.38l-8.67,14.83c13.71,7.5,27.42,15.01,41.14,22.51,5.98,3.27,13.07,8.78,20.09,9.17,7.04.39,14.38-5.31,13.45-12.86s-11.36-12.41-16-4.33c-3.06,5.32-1.92,10.34-.15,15.83.1.31.9,2.15.63,1.98,3.01-1.45,3.87-2.62,2.56-3.51l-.34-.15c-.33-.37-2.95-1.15-3.49-1.4-2.08-.97-4.13-1.98-6.2-2.97-14.46-6.92-28.92-13.84-43.38-20.76-9.84-4.71-18.36,9.21-8.67,14.83,9.24,5.36,18.48,10.71,27.73,16.07,9.7,5.62,17.63-8.6,8.67-14.83-11.18-7.78-23.33-13.82-36.16-18.35-9.5-3.36-14.52,10.65-6.62,15.69,11.41,7.29,23.34,13.63,35.76,19.01,9.87,4.27,18.44-9.03,8.67-14.83-14.02-8.32-28.61-15.43-43.68-21.62-4.29-1.76-9.44,1.91-10.56,6-1.35,4.93,1.69,8.79,6,10.56,13.68,5.61,26.87,12.35,39.58,19.89,2.89-4.94,5.78-9.89,8.67-14.83-12.43-5.38-24.36-11.72-35.76-19.01-2.21,5.23-4.41,10.46-6.62,15.69,11.44,4.04,22.11,9.7,32.06,16.62,2.89-4.94,5.78-9.89,8.67-14.83-9.24-5.36-18.48-10.71-27.73-16.07-2.89,4.94-5.78,9.89-8.67,14.83,17.77,8.51,35.39,17.95,53.57,25.54,7.5,3.13,16.9,3.1,21.4-4.81,1.95-3.42,2.02-7.4,1.12-11.15-.35-1.49-.95-2.9-1.41-4.35-.84-2.63.2-2.19-.82-.41-5.33-1.44-10.67-2.89-16-4.33l.07.02,2.21-3.79c3.24.1,3.71-.28,1.41-1.14-1.17-.64-2.33-1.28-3.5-1.92-2.33-1.28-4.67-2.55-7-3.83-4.67-2.55-9.34-5.11-14-7.66-9.34-5.11-18.67-10.22-28.01-15.33-9.7-5.31-18.36,9.49-8.67,14.83,14.75,8.13,29.5,16.25,44.25,24.38,9.68,5.33,18.27-9.3,8.67-14.83-19.93-11.48-40.42-21.93-61.4-31.34-4.23-1.9-9.23-1.22-11.75,3.08-2.27,3.88-1.03,9.58,3.08,11.75,19.71,10.41,39.42,20.81,59.14,31.22,2.89-4.94,5.78-9.89,8.67-14.83-14.62-7.48-29.68-14.05-45.07-19.75-9.2-3.4-15.01,11.04-6.62,15.69,10.63,5.9,21.27,11.81,31.9,17.71,9.67,5.37,18.22-9.23,8.67-14.83-23-13.46-46.28-26.43-69.83-38.89-9.76-5.16-18.43,9.59-8.67,14.83,16.31,8.76,31.86,18.89,46.27,30.52,3.47-4.5,6.94-8.99,10.41-13.49-25.28-16.37-51.09-31.88-77.41-46.52-2.21,5.23-4.41,10.46-6.62,15.69,24.61,9.8,47.81,22.97,69.12,38.69,2.89-4.94,5.78-9.89,8.67-14.83-19.86-11.05-40.19-21.19-60.96-30.4-9.9-4.39-18.28,8.87-8.67,14.83,9.3,5.77,18.61,11.54,27.91,17.31,4.51,2.8,9.02,5.59,13.53,8.39,1.71,1.06,8.01,3.8,7.87,6.13,3.62-2.76,7.25-5.52,10.87-8.28-24.54-8.59-47.82-21.14-68.35-37.13-2.78,4.78-5.57,9.57-8.35,14.35,13.83,2.63,26.41,8.04,37.85,16.23,3.77,2.7,9.56.66,11.75-3.08,2.56-4.37.65-8.98-3.08-11.75-12.63-9.37-25.47-18.45-38.52-27.23-3.99-2.69-9.33-.6-11.75,3.08-4.4,6.69-7.68,14.04-9.83,21.76-2.68,9.59,10.48,14.67,15.69,6.62,2-3.09,4-6.18,6-9.27-4.94-2.89-9.89-5.78-14.83-8.67-5.37,12.12-4.04,25.27,2.67,36.66,6.59,11.18,17.26,18.97,27.57,26.45l6.62-15.69c-10.55-3.92-20.37-9.75-28.9-17.1v12.14c6.61-5.16,18.57.48,24.94,3.37,12.03,5.46,24,11.07,36,16.6,21.95,10.12,44.59,19.57,64.26,33.84-1.03-3.92-2.05-7.83-3.08-11.75-1.5,2.83-3.16,4.71-5.93,6.32,4.2,3.23,8.41,6.46,12.61,9.7,1.83-7.01,3.65-14.03,5.48-21.04,2.79-10.7-13.69-15.25-16.56-4.57-1.39,5.17-3.51,9.67-6.49,14.12,3.23-1.32,6.46-2.63,9.7-3.95-21.41-7.2-41.52-17.48-60.06-30.39-2.21,5.23-4.41,10.46-6.62,15.69,14.2,3.68,28.01,8.55,41.29,14.79,9.85,4.63,18.4-9.22,8.67-14.83-22.64-13.06-45.91-24.95-69.75-35.65-4.23-1.9-9.23-1.22-11.75,3.08-2.18,3.73-1.13,9.76,3.08,11.75,17.36,8.17,34.31,17.13,50.84,26.88,2.89-4.94,5.78-9.89,8.67-14.83-25.03-14.49-50.06-28.98-75.08-43.47-4.01-2.32-9.4-.93-11.75,3.08-2.57,4.4-.63,8.94,3.08,11.75,15.97,12.06,31.93,24.11,47.9,36.17,2.89-4.94,5.78-9.89,8.67-14.83-22.26-10.58-43.65-22.84-64.01-36.73-2.89,4.94-5.78,9.89-8.67,14.83,24.66,12.5,48.44,26.6,71.24,42.24,2.89-4.94,5.78-9.89,8.67-14.83-13.04-7.32-26.09-14.65-39.13-21.97-6.38-3.58-12.76-7.15-19.13-10.74-4-2.26-8.93-4.43-9.74-9.35-1.49-9.05-14.08-7.22-16.56,0-2.4,6.97-5.77,14.21-7.16,21.46-1.54,8.03,3.17,13.14,9.97,16.37,14.34,6.83,28.72,13.58,43.08,20.37,28.72,13.58,57.44,27.16,86.17,40.73-1.32-3.23-2.63-6.46-3.95-9.7-1.66,4.66-3.33,9.32-4.99,13.98,3.52-2,7.04-4,10.56-6-47.9-19.07-93.5-43.77-135.87-73.13l-4.33,16c3.31.15,5.4,1.64,7.51,4.11l8.35-14.35c-3.42-.76-5.44-2.56-6.29-5.99-3.52,3.52-7.04,7.04-10.56,10.56,4.87,1.79,9.75,3.58,14.62,5.38,4.35,1.6,9.41-1.79,10.56-6,1.32-4.79-1.63-8.96-6-10.56h0Z"/>
      <path class="cls-7" d="M738.29,113.99c-46.78-25.11-94.7-48.06-143.59-68.77-4.27-1.81-9.2-1.28-11.75,3.08-2.11,3.6-1.21,9.93,3.08,11.75,48.89,20.71,96.81,43.66,143.59,68.77,9.74,5.23,18.42-9.59,8.67-14.83h0Z"/>
      <path class="cls-7" d="M567.85,86.75c49.5,18.79,97.28,41.88,142.87,68.8,9.54,5.63,18.19-9.21,8.67-14.83-46.88-27.68-96.08-51.21-146.97-70.53-4.34-1.65-9.42,1.83-10.56,6-1.33,4.83,1.65,8.91,6,10.56h0Z"/>
      <path class="cls-7" d="M568.34,116.3c11.05,0,11.07-17.17,0-17.17s-11.07,17.17,0,17.17h0Z"/>
      <path class="cls-7" d="M560.01,112.5c47.72,21.91,94.71,45.39,140.89,70.4,6.51,3.53,12.33-6.4,5.81-9.93-46.18-25.01-93.17-48.49-140.89-70.4-6.68-3.07-12.53,6.84-5.81,9.93h0Z"/>
      <path class="cls-32" d="M721.78,156.22c-40.71-15.95-81.42-31.89-122.13-47.84-6.9-2.7-9.89,8.42-3.06,11.09,40.71,15.95,81.42,31.89,122.13,47.84,6.9,2.7,9.89-8.42,3.06-11.09h0Z"/>
      <path class="cls-32" d="M734.94,127.9c-36.69-13.45-73.38-26.91-110.06-40.36-6.96-2.55-9.96,8.56-3.06,11.09,36.69,13.45,73.38,26.91,110.06,40.36,6.96,2.55,9.96-8.56,3.06-11.09h0Z"/>
      <path class="cls-32" d="M705.68,179.01c-29.88-10.62-59.77-21.24-89.65-31.85-6.99-2.48-10,8.63-3.06,11.09,29.88,10.62,59.77,21.24,89.65,31.85,6.99,2.48,10-8.63,3.06-11.09h0Z"/>
      <path class="cls-10" d="M746.44,73.66c-.38-1.46-1.35-2.59-2.6-3.29-12.35-14.57-30.77-22.18-48.69-28.19-5.66-3.03-11.37-5.97-17.14-8.79-1.55-.76-3.05-.8-4.37-.37-8.13-6.87-17.09-12.77-26.7-17.35-1.41-.67-3.04-1.48-4.82-2.3-1.07-.7-2.15-1.4-3.22-2.11-1.37-.9-2.72-1.12-3.91-.88-5.88-2.11-12.1-3.24-16.57-.67-4.3.03-7.87,1.72-9.52,6.28-.64,1.77-.59,3.4-.12,4.91-5.3,3.4-10.11,8.48-8.86,14.23-.03.11-.08.22-.11.34-.63,2.41.28,4.49,1.98,5.89.05,1.05.2,2.1.49,3.14,2.38,8.66,12.15,12.57,19.88,9.03.96.3,1.92.6,2.89.91.25.08.5.13.75.17.04.03.08.05.12.08.41,1.04,1.18,2.02,2.41,2.8,26.97,17.24,55.63,31.61,85.49,43.06,5.45,3.32,11.07,6.34,16.92,9.03,2.7,1.24,5.67.23,7.4-1.68,1.26-.5,2.44-1.21,3.47-2.12,1.49-1.32,2.58-2.92,3.39-4.65.37-.08.76-.18,1.15-.31,13.08-4.15,5.87-19.42.31-27.17Z"/>
      <path class="cls-14" d="M748.16,72.95c-2.27-10.92-10.6-21.01-21.9-22.97-5.65-.98-9.55,5.12-5.6,9.61,9.49,10.77,9.53,28.32.08,39.12-4.56,5.21,2.3,12.72,7.19,9.02-1.09,5.06,5.4,9.05,9.72,5.19,1.15-1.02,2.29-2.05,3.44-3.07,1.95-1.74,2.19-3.87,1.46-5.69,4.7-9.75,7.85-20.36,5.6-31.21Z"/>
      <path class="cls-29" d="M751.08,65.95c-30.57-14.94-61.15-29.88-91.72-44.83-12.52-6.12-27.3-13.54-41.04-6.49-11.03,5.66-15.66,18.23-19.13,29.33-2.21,7.08,8.89,10.11,11.09,3.06,2.84-9.08,6.73-21.85,17.69-23.59,6.48-1.03,13.22,1.77,18.99,4.43,6.37,2.94,12.64,6.14,18.94,9.23,26.46,12.93,52.92,25.86,79.38,38.79,6.63,3.24,12.46-6.68,5.81-9.93Z"/>
      <path class="cls-9" d="M413.16,623.24c2.86-23.76,3.89-47.68,3.08-71.6-.25-7.38-11.75-7.42-11.5,0,.81,23.92-.22,47.84-3.08,71.6-.88,7.33,10.63,7.27,11.5,0h0Z"/>
      <path class="cls-4" d="M412.27,611.94c-.51-22.54.49-45.05,3-67.46.82-7.35-10.69-7.29-11.5,0-2.51,22.4-3.51,44.92-3,67.46.17,7.39,11.67,7.42,11.5,0h0Z"/>
      <path class="cls-6" d="M411.28,541.06c-2.07-29.37-4.14-58.73-6.21-88.1-.52-7.34-12.03-7.4-11.5,0,2.07,29.37,4.14,58.73,6.21,88.1.52,7.34,12.03,7.4,11.5,0h0Z"/>
      <path class="cls-4" d="M425.83,511.05c0-2.26-.28-4.53-.76-6.74-3.5,1.48-7.01,2.95-10.51,4.43.23.44.45.87.68,1.31,1.39,2.67,5.35,3.69,7.87,2.06,2.72-1.76,3.55-5.01,2.06-7.87-.23-.44-.45-.87-.68-1.31-1.32-2.54-4.68-3.41-7.18-2.35-2.71,1.14-3.95,3.95-3.33,6.79.09.4.16.79.24,1.19.26,1.36-.08-1.31,0,.07.05.81.11,1.61.1,2.42,0,3.01,2.65,5.89,5.75,5.75,3.12-.14,5.74-2.53,5.75-5.75h0Z"/>
      <path class="cls-4" d="M422.62,529.9c-.1-.29-.17-.58-.22-.88l.21,1.53c-.07-.49-.07-.97,0-1.45l-.21,1.53.03-.18c.24-.76.27-1.53.1-2.29-.03-.77-.26-1.48-.68-2.14-.7-1.19-2.07-2.33-3.44-2.64-1.47-.34-3.13-.26-4.43.58-1.19.77-2.39,1.99-2.64,3.44-.33,1.89-.43,3.72.19,5.58.48,1.42,1.33,2.67,2.64,3.44,1.23.72,3.05,1.03,4.43.58,1.39-.45,2.73-1.31,3.44-2.64s1.07-2.96.58-4.43h0Z"/>
      <path class="cls-21" d="M535.44,532.96c.58-.49,1.16-.98,1.76-1.45-.73.56.96-.69,1.12-.8,1.24-.87,2.53-1.68,3.84-2.45,2.6-1.52,3.75-5.26,2.06-7.87-1.69-2.61-5.09-3.69-7.87-2.06-3.21,1.88-6.21,4.09-9.05,6.5-2.3,1.95-2.16,6.15,0,8.13,2.45,2.25,5.68,2.08,8.13,0h0Z"/>
      <path class="cls-27" d="M264.87,252.63c-8.29-44.72,16.54-88.73,56.87-108.14,39.02-18.78,88.98-10.31,117.83,22.5,15.53,17.66,23.79,41.01,22.7,64.48-.51,11.05,16.66,11.02,17.17,0,2.39-51.54-34.35-97.74-83.76-110.26-49.16-12.46-102.35,7.9-130.43,50.19-16.68,25.12-22.42,56.3-16.95,85.81.85,4.56,6.37,7.15,10.56,6,4.79-1.32,6.85-5.99,6-10.56h0Z"/>
      <path class="cls-20" d="M283.66,239.74c-1.95-33.67,16.75-66.46,47.65-80.57,30.82-14.07,68.3-7.35,92.04,16.73,12.9,13.09,21.02,29.84,23.62,48.01.66,4.59,6.5,7.11,10.56,6,4.94-1.36,6.66-5.95,6-10.56-5.5-38.39-35.16-71.96-72.84-81.52-39.82-10.1-82.38,5.31-106.08,38.82-12.84,18.16-19.4,40.89-18.11,63.09.64,10.99,17.81,11.06,17.17,0h0Z"/>
      <path class="cls-7" d="M141.76,385.63c-19.34-71.02-10.69-148.74,22.7-214.26,9.36-18.38,20.61-35.79,33.67-51.76,4.65-5.69-3.44-13.87-8.13-8.13-48.56,59.37-73.49,136.69-69.54,213.26,1.12,21.6,4.53,43.08,10.21,63.95,1.94,7.13,13.04,4.11,11.09-3.06h0Z"/>
      <path class="cls-7" d="M253.5,71.66c21.85-17.06,47.57-28.51,74.72-33.9,7.26-1.44,4.18-12.53-3.06-11.09-29.21,5.8-56.35,18.56-79.79,36.86-5.83,4.55,2.36,12.64,8.13,8.13h0Z"/>
      <path class="cls-7" d="M385.81,26.07c53.51-.06,106.58,9.26,156.9,27.45,6.97,2.52,9.98-8.59,3.06-11.09-51.21-18.51-105.5-27.93-159.96-27.86-7.4,0-7.41,11.51,0,11.5h0Z"/>
      <path class="cls-7" d="M325.25,25.57c-26.8,7.83-52.46,19.19-76.24,33.82-6.29,3.87-.52,13.83,5.81,9.93,22.98-14.13,47.59-25.1,73.49-32.66,7.09-2.07,4.07-13.18-3.06-11.09h0Z"/>
      <path class="cls-7" d="M322.38,25.14c-28.71,6.13-55.34,18.89-78.42,36.97-5.82,4.56,2.37,12.65,8.13,8.13,21.49-16.84,46.68-28.32,73.34-34.02,7.24-1.54,4.17-12.64-3.06-11.09h0Z"/>
      <path class="cls-7" d="M194.56,110.42c-19.72,15.5-35.34,35.84-45.24,58.88-2.89,6.73,7.02,12.6,9.93,5.81,9.58-22.3,24.37-41.55,43.44-56.55,5.82-4.57-2.38-12.66-8.13-8.13h0Z"/>
      <path class="cls-7" d="M256.06,72.83c20.3-16.96,43.88-29.57,69.18-37.23,7.07-2.14,4.06-13.25-3.06-11.09-27.28,8.25-52.4,21.92-74.26,40.19-5.69,4.75,2.49,12.85,8.13,8.13h0Z"/>
      <path class="cls-7" d="M258.07,70.11c21.38-14.29,44.94-24.48,70.01-30.23,7.21-1.66,4.16-12.75-3.06-11.09-25.94,5.95-50.63,16.6-72.76,31.39-6.12,4.09-.37,14.06,5.81,9.93h0Z"/>
      <path class="cls-7" d="M149.29,201.45c11.91-29.17,27.85-56.59,46.99-81.6,4.5-5.88-5.49-11.61-9.93-5.81-19.8,25.87-35.83,54.2-48.15,84.35-2.8,6.85,8.33,9.83,11.09,3.06h0Z"/>
      <g>
        <path class="cls-30" d="M168.41,269.26c4.86.57,9.73,1.15,14.59,1.72,2.28,12.22,5.63,24.16,10.06,35.8,1.65,4.33,5.79,7.31,10.56,6,4.15-1.14,7.65-6.2,6-10.56-5.09-13.38-8.76-27.17-11.01-41.3-.72-4.51-6.27-7.04-10.37-6.04-1-.42-2.1-.7-3.23-.83l-16.6-1.96c-4.61-.54-8.59,4.34-8.59,8.59,0,5.09,3.96,8.04,8.59,8.59Z"/>
        <path class="cls-30" d="M207.76,380.69c5.84,5.87,11.69,11.74,17.53,17.61.42,1.28,1.1,2.45,1.99,3.34,3.57,3.57,8.52,2.92,12.14,0,7.66-6.17,15.71-11.8,24.03-17.04,19.28,11.66,40.49,20,62.56,24.52,2.77,11.32,5.54,22.63,8.31,33.95.33,1.36.89,2.48,1.61,3.37,1.27,2.4,3.67,4.18,7.23,4.18h42.65c7.93,0,10.18-8.84,6.73-13.84,35.86-71.32,71.72-142.64,107.57-213.96,10.47-20.82,20.94-41.65,31.41-62.47,2.17-4.33-1.34-8.32-4.96-8.69-1.47-5.08-2.95-10.15-4.42-15.23-.38-1.3-1.06-2.26-1.91-2.92,5.88-10.86,11.76-21.73,17.63-32.59,3.52-6.51-6.41-12.33-9.93-5.81-6.25,11.56-12.51,23.11-18.76,34.67-1.6,2.96-.42,5.76,1.66,7.34-.09.72-.04,1.51.21,2.36,2.21,7.61,4.42,15.22,6.63,22.84-35.49,70.58-70.98,141.17-106.46,211.75-9.95,19.79-19.9,39.58-29.85,59.37h-31.72c-2.76-11.27-5.52-22.55-8.28-33.82-.84-3.42-3.09-5.28-5.68-5.89-.44-.19-.9-.34-1.39-.43-23.78-4.39-46.15-13.17-66.51-26.22-3.82-2.45-7.52-1.4-9.93,1.1-.68.22-1.38.53-2.08.97-7.2,4.49-14.15,9.33-20.9,14.44-4.99-5.01-9.98-10.02-14.97-15.03-7.81-7.84-19.95,4.3-12.14,12.14Z"/>
        <path class="cls-30" d="M634.15,365.04c4.79,2.8,13.21,1.62,15.63-4.1,13.76-32.52,28.72-64.51,44.85-95.92,6.7-13.05-13-24.62-19.72-11.53-16.13,31.41-31.09,63.4-44.85,95.92-2.4,5.68-1.7,12.23,4.1,15.63Z"/>
        <path class="cls-30" d="M392.61,573.91c-90.52-5.55-174.74-54.69-223.84-130.95-13.4-20.81-24.08-43.21-31.77-66.73-2.29-7.01-13.4-4.01-11.09,3.06,28.99,88.75,98.67,159.86,186.94,190.36,25.72,8.89,52.61,14.1,79.76,15.77,7.39.45,7.37-11.05,0-11.5Z"/>
        <path class="cls-30" d="M686.71,323.51c-8.46,53.47-30.1,104.52-62.41,147.84-8.7,10.74-18.09,20.93-28.13,30.46-1.9,1.81-3.84,3.59-5.79,5.35-8.57,7.23-17.56,13.97-26.94,20.15,22.25-42.83,43.44-86.21,63.52-130.1,3.06-6.68-6.85-12.54-9.93-5.81-21.16,46.27-43.55,91.98-67.13,137.07-.44.84-.66,1.67-.7,2.47-3.01-.98-6.38-.82-9.09.99-11.16,7.45-22.75,14.16-34.77,20.14-5.52,2.74-7.06,10.56-4.1,15.63,3.29,5.63,10.08,6.85,15.63,4.1,12.02-5.97,23.61-12.69,34.77-20.14,2.44-1.63,4.21-3.99,5.05-6.61,1.84-1.08,3.68-2.17,5.5-3.29,1.01.29,2.13.23,3.28-.32,2.04,1.25,4.79,1.49,7.12-.36,16.96-13.47,32.54-28.58,46.59-45.01,17.8-18.3,33.26-38.88,45.78-61.16,7.4-13.16,13.7-26.9,19.01-41.03.4-1.06.47-2.03.31-2.89,2.61-6.68,5.02-13.44,7.2-20.27.86-2.7-.23-4.81-2.03-5.99,3.51-12.54,6.3-25.28,8.34-38.15,1.15-7.24-9.94-10.36-11.09-3.06Z"/>
        <path class="cls-30" d="M77.17,393.74c.45,9.67-5.12,20.74-15.42,22.68-8.72,1.65-18.36-5.4-18.42-14.43-.04-7.4-11.55-7.42-11.5,0,.09,15.43,15.02,27.7,30.18,25.96,16.44-1.9,27.4-18.4,26.66-34.21-.35-7.37-11.85-7.41-11.5,0Z"/>
      </g>
      <path class="cls-16" d="M147.07,263.36c-2.15,6.73.21,13.47,4.84,18.57,5.43,5.99,13.11,7.91,20.09,11.4,12.68,6.34,17.39,21.2,27.01,30.88,4.87,4.89,11.64-1.28,9.03-6.97-3.03-6.62-6.05-13.24-9.08-19.87-2.78-6.09-5.22-12.56-8.62-18.33-2.74-4.65-6.55-8.57-11.76-10.31-4.35-1.45-11.29-.26-14.58-3.75-4.39-4.64-12.88,1.56-9.03,6.97,5.72,8.07,13.89,13.68,23.76,15.21,6.13.95,10.38-6.91,4.43-10.51-7.14-4.33-14.28-8.66-21.43-12.99-6.35-3.85-12.14,6.1-5.81,9.93,7.14,4.33,14.28,8.66,21.43,12.99,1.48-3.5,2.95-7.01,4.43-10.51-6.82-1.06-12.83-4.21-16.89-9.93l-9.03,6.97c3.6,3.81,8.2,4.87,13.22,5.5,5.92.75,9.11,2.1,12.06,7.55,6.4,11.83,11.38,24.64,16.97,36.88l9.03-6.97c-8.29-8.33-12.64-19.93-21.7-27.58-5.07-4.28-10.91-6.45-16.88-9.12-4.95-2.21-12.51-6.39-10.41-12.96,2.26-7.07-8.84-10.09-11.09-3.06h0Z"/>
      <path class="cls-16" d="M191.27,370.56c-4.06,6.6-.96,13.59,3.47,19.11,4.95,6.17,10.41,12,15.61,17.96,4.37,5,9.17,10.26,15.86,11.95,6.12,1.55,11.84-.87,16.6-4.58,4.11-3.21,8.35-9.07,14.15-8.36,3.35.41,6.44,2.59,9.36,4.12,3.56,1.87,7.21,3.55,10.95,5.03,14.67,5.84,30.69,8.07,46.41,6.79,6.02-.49,8.33-9.96,1.53-11.3-13.55-2.67-26.87-6.58-39.6-11.97-11.14-4.72-22.64-11.26-35.02-7.18-7,2.3-4,13.41,3.06,11.09,10.88-3.58,22.89,4.85,32.71,8.73,11.59,4.58,23.58,8.01,35.8,10.42.51-3.77,1.02-7.53,1.53-11.3-13.65,1.12-27.15-.51-40.06-5.13-10.9-3.9-22.38-14.31-34.54-9.63-7.61,2.93-15.19,16.53-23.79,10.19-4.97-3.66-8.87-9.38-12.9-14-2.25-2.58-13.44-12.49-11.19-16.14,3.89-6.32-6.06-12.11-9.93-5.81h0Z"/>
      <path class="cls-16" d="M325.25,415.97c-9.81-.91-19.28-3.41-28.18-7.26.19-1.98-.59-4.09-2.64-5.48-6.65-4.49-13.68-8.97-21.73-10.34-8.1-1.38-16.02.8-23,4.94-3.27,1.94-6.3,4.31-9.21,6.77-2.23,1.89-6.1,6.63-9.43,5.19-2.15-.93-3.51-4.23-4.58-6.06-1.74-2.97-3.51-5.82-5.82-8.4-4.95-5.53-13.06,2.63-8.13,8.13,4.4,4.9,6.09,11.86,11.81,15.66,6.44,4.29,13.7,2.19,19.43-2.27,6.45-5.01,12.42-11.35,20.89-12.71,1.23-.2,2.44-.25,3.63-.2.42.83,1.05,1.61,1.92,2.28,15.98,12.28,35.02,19.38,55.04,21.24,7.37.68,7.32-10.82,0-11.5Z"/>
      <path class="cls-16" d="M310.71,414.48c4.57,14.54,9.46,28.97,14.68,43.29,2.51,6.9,13.64,3.92,11.09-3.06-5.22-14.32-10.11-28.75-14.68-43.29-2.21-7.04-13.32-4.03-11.09,3.06h0Z"/>
      <path class="cls-16" d="M325.39,454.51c2.59,8.63,11.29,11.14,19.46,11.35,12.24.31,24.58-.27,36.83-.48,7.39-.13,7.42-11.63,0-11.5-9.23.16-18.46.3-27.68.4-3.41.04-16.1,1.87-17.51-2.82-2.13-7.07-13.23-4.06-11.09,3.06h0Z"/>
      <path class="cls-16" d="M320.03,418.64l.08-1.01c-3.77.51-7.53,1.02-11.3,1.53,3.01,10.08,6.53,19.99,10.6,29.7,3.93,9.36,8.05,16,18.85,17.24,10.29,1.18,20.83.4,31.11-.42,4.03-.32,8.54-.07,11.71-3,3.19-2.94,3.05-6.99.34-10.1-4.88-5.58-12.99,2.58-8.13,8.13l.49.56-1.48-5.6c1.41-1.56,1.39-2.14-.06-1.74-.95.08-1.91.16-2.86.23-1.59.13-3.18.25-4.77.36-3.5.24-7,.44-10.5.54-5.26.14-14.63,1.49-19.15-1.71-2.18-1.55-3.17-4.59-4.19-6.96-1.45-3.37-2.81-6.79-4.11-10.23-2.5-6.6-4.73-13.3-6.75-20.07-1.92-6.43-10.8-4.83-11.3,1.53l-.08,1.01c-.58,7.38,10.93,7.35,11.5,0h0Z"/>
      <path class="cls-22" d="M48.57,387.45c-3.61,1.34-6.96,2.99-8.7,6.6-1.44,2.99-.98,6.7,1.03,9.32,5.86,7.65,14.17-.74,19.34-4.59,2.85-2.12,5.95-4.05,7.41-7.43,1.56-3.61.43-8.01-3.06-10.09-6.24-3.73-16.05-.07-21.51,3.52-6.16,4.05-.41,14.01,5.81,9.93,1.72-1.13,3.42-2.05,5.4-2.62.79-.23,1.62-.46,2.44-.57,1.14-.16,2.83.66,1.52-.62l-1.48-2.54c.9-1.96.85-2.35-.14-1.16-.55.43-1.1.85-1.66,1.25-1.06.79-2.12,1.58-3.19,2.37s-2.12,1.58-3.19,2.37c-.71.53-1.42,1.05-2.12,1.58-.9.57-.89.62.05.17.97.26,1.94.52,2.9.79,1.13,1.03,1.38,2.19.75,3.46.45-.3.93-.52,1.46-.65,2.91-1.08,4.89-3.9,4.02-7.08-.77-2.8-4.15-5.1-7.08-4.02h0Z"/>
      <path class="cls-22" d="M48.16,307.15c-.45-7.59,3.9-15.25,11.47-17.5,7.5-2.23,15.43,1.9,19.07,8.51,3.57,6.49,13.51.69,9.93-5.81-6.07-11.04-19.73-17.39-32.06-13.79-12.27,3.59-20.67,15.92-19.92,28.6.44,7.36,11.94,7.41,11.5,0h0Z"/>
      <path class="cls-22" d="M736.05,407.82c.92-7.29,9.71-11.64,16.35-10.19,7.67,1.67,13.01,9.56,13.84,17.03.81,7.28,12.32,7.36,11.5,0-1.51-13.58-10.66-26.72-25.01-28.61-13.83-1.82-26.47,8.13-28.19,21.77-.92,7.33,10.59,7.26,11.5,0h0Z"/>
      <path class="cls-22" d="M636.49,377.37c.03-1.63-.27.7.16-.81-.23.8.59-.44.02.06.81-.71.88-.89,1.58-1.18-.41.17.89-.24,1.04-.27-.94.19.79,0,.84,0-.87.09.64.3-.09-.1.93.52-.12-.34.75.49,5.34,5.13,13.49-2.99,8.13-8.13-8.47-8.13-23.74-1.81-23.94,9.94-.12,7.41,11.38,7.41,11.5,0h0Z"/>
      <path class="cls-22" d="M299.43,517.05c-6.83-12.45,6.39-26.32,19.11-19.67,6.55,3.43,12.38-6.5,5.81-9.93-10.07-5.26-22.93-4.04-31.1,4.25-8.14,8.25-9.21,21.22-3.75,31.16,3.56,6.49,13.5.69,9.93-5.81h0Z"/>
      <path class="cls-22" d="M219.03,462.62c-.16-12.18,15.3-18.49,22.74-7.98,4.24,5.99,14.22.25,9.93-5.81-6.12-8.64-16.98-13.33-27.41-10.08-10.23,3.19-16.9,13.34-16.76,23.86.09,7.4,11.6,7.42,11.5,0h0Z"/>
      <path class="cls-1" d="M46.78,325.3c16.53,8.72,35.62-2.22,36.54-20.85.37-7.4-11.14-7.38-11.5,0-.49,9.79-10.59,15.48-19.23,10.92-6.54-3.45-12.36,6.47-5.81,9.93h0Z"/>
      <path class="cls-1" d="M216.32,475.35c13.03,10.63,33.26,4.96,36.26-12.51,1.24-7.24-9.84-10.35-11.09-3.06-1.38,8.03-10.01,13.16-17.03,7.43-5.69-4.64-13.87,3.45-8.13,8.13h0Z"/>
      <path class="cls-1" d="M298.96,527.46c13.25,2.93,27.56-5.62,30.02-19.3,1.3-7.24-9.78-10.34-11.09-3.06-1.31,7.28-8.32,12.93-15.87,11.26-7.21-1.59-10.3,9.49-3.06,11.09h0Z"/>
      <path class="cls-1" d="M728.14,422.55c9.96,14.57,31.19,16.65,42.49,2.28,4.53-5.75-3.56-13.95-8.13-8.13-6.39,8.11-18.23,9.1-24.43.04-4.15-6.07-14.13-.33-9.93,5.81h0Z"/>
      <path class="cls-1" d="M634.81,390.12c4.88-.6,9.31-4.04,10.09-9.12.27-1.78-.45-3.59-2.33-4.1-1.58-.43-3.83.54-4.1,2.33-.2,1.31-.49,2.05-1.32,2.89-.67.69-1.7,1.25-2.34,1.33-1.79.22-3.33,1.38-3.33,3.33,0,1.63,1.53,3.56,3.33,3.33h0Z"/>
      <path class="cls-18" d="M133.12,119.32c-.93-3.39-3.08-6.41-6.28-8.11-6.7-3.56-14.72-.87-18.84,5.17-1.55,2.27-1.16,4.48.16,6.07-.5,4.62,1.69,9.32,6.21,11.9,3.16,1.8,6.83,2.16,10.12,1.24,6.22-.76,11.63-6.78,10-13.23-.28-1.11-.75-2.13-1.36-3.04Z"/>
      <path class="cls-19" d="M65.26,502.42c.11.76.32-.93.06-.13.06-.19.46-1.36.34-1.11-.13.27.54-.84.65-.99-.31.39.85-.77.84-.76.97-.76,2.21-1.03,3.36-.71,7.13,2.03,10.18-9.07,3.06-11.09-5.21-1.48-10.56.13-14.55,3.66s-5.62,8.83-4.86,14.17c.44,3.08,4.35,4.77,7.08,4.02,3.31-.91,4.46-3.99,4.02-7.08h0Z"/>
      <path class="cls-23" d="M457.08,201.97c-.51-.99-1.09-1.88-1.72-2.68-1.65-4.68-3.52-9.28-5.57-13.78-6.1-13.39-15.78-23.91-29.61-29.17-9.37-10.34-21.35-17.92-35.48-20.31-1.28-.22-2.54-.34-3.78-.37-12.41-4.72-26.05-6.67-37.94,1-.9.58-1.75,1.25-2.54,1.99-6.36.91-12.61,2.71-18.71,5.79-8.29,4.19-15.57,11.17-22.53,17.25-6.72,5.89-12.75,12.24-18.06,19.45-23.95,32.53-11.72,73.87,4.04,106.92.93,1.94,2.29,3.54,3.92,4.8,1.2,2.34,2.59,4.59,4.24,6.73,1.42,1.83,2.98,3.49,4.65,4.99.66,1.15,1.44,2.27,2.37,3.33,16,18.3,39.3,25.82,63.1,25.21,11.55-.3,23.9-.91,35.08-3.93,12.72-3.44,22.6-11.15,32.2-19.83,2.83-2.56,4.43-6.22,4.84-10.05.05-.04.1-.08.15-.11,3.25-2.45,6.67-4.83,9.51-7.78,6.09-6.32,10.7-14.74,10.53-23.69,3.93-8.17,6.32-17.01,6.92-26.03,2.18-13.75.81-27.13-5.63-39.72ZM377.91,249.82c-4.3,3.34-10.27,7.43-15.99,5.94-2.58-.67-4.83-2.31-7.49-2.87-1.12-.23-2.25-.33-3.38-.3-6-7.95-11.22-20.72-4.69-28.6,3.82-4.61,10.29-6.26,15.99-6.8,4.9-.46,10.85-1.18,14.29,2.97,3.43,4.14,4.66,10.44,5.76,15.54,1.35,6.26.64,10.13-4.49,14.11Z"/>
      <path class="cls-17" d="M352.35,236.6c.07-6.12,2.05-11.79,8.45-13.8,5.68-1.78,11.93,1.67,14.06,7.1,2.02,5.13,10.4,2.9,8.36-2.3-3.68-9.36-13.16-15.73-23.39-13.49-10.9,2.39-16.03,12.1-16.15,22.5-.07,5.58,8.6,5.58,8.67,0h0Z"/>
      <g>
        <g>
          <path class="cls-7" d="M66.06,741.88c-5.79,0-11.44-.77-16.79-2.3-20.37-5.81-34.46-22.45-35.88-42.38-.22-3.12.75-6.02,2.74-8.15,2.04-2.19,5.05-3.45,8.26-3.45,6.4,0,11.37,4.54,11.82,10.79.99,13.94,15.11,22.04,27.89,22.58.64.03,1.28.04,1.92.04,12.4,0,25.38-5.24,35.61-14.37,19.39-17.3,28.67-47.36,23.1-74.8-4.89-24.06-25.88-40.87-51.06-40.87h-.27c-14.25.07-29.48,7.14-37.9,17.61-4.34,5.39-8.98,14.3-6.45,26.13,2.25,10.51,10.93,19,20.64,20.19.71.09,1.45.13,2.18.13,4.09,0,7.59-1.31,9.36-3.49,1.43-1.77,1.35-4.2-.19-5.54-3.52-3.05-4.74-7.56-3.17-11.77,1.71-4.59,6.32-7.8,11.21-7.8,2.75,0,5.35.99,7.52,2.86,8.12,7.02,10.73,19.31,6.35,29.87-3.87,9.33-13.21,16.26-24.36,18.09-2.17.36-4.39.54-6.6.54-18.1,0-35.73-12.52-42.89-30.44-6.83-17.12-3.11-38.41,9.49-54.24,11.34-14.26,29.58-23.3,50.02-24.8,1.76-.13,3.55-.19,5.33-.19,15.97,0,31.78,5.03,44.51,14.16,15.65,11.22,26,28.23,29.14,47.9,3.05,19.1.85,39.51-6.19,57.47-7.6,19.38-20.25,34.91-36.58,44.91-11.9,7.29-25.67,11.31-38.76,11.31h0Z"/>
          <path class="cls-24" d="M73.93,571.81c14.56,0,29.43,4.65,41.21,13.1,14.8,10.61,23.98,26.24,26.84,44.19,5.77,36.13-8.05,77-40.13,96.65-10.63,6.51-23.24,10.47-35.8,10.47-5.13,0-10.26-.66-15.23-2.08-17.23-4.91-30.48-19.17-31.78-37.34-.26-3.69,2.47-5.53,5.34-5.53s5.9,1.85,6.16,5.53c1.21,16.97,17.56,27.17,33.3,27.85.72.03,1.44.05,2.16.05,14.51,0,28.62-6.2,39.38-15.81,21.56-19.24,30.57-52.13,24.88-80.16-5.51-27.11-29.08-45.41-56.61-45.41-.1,0-.2,0-.3,0-26.29.12-56.16,21.19-49.87,50.6,2.61,12.19,12.78,23.07,25.49,24.63.93.11,1.89.17,2.87.17,5.09,0,10.55-1.62,13.77-5.59,3.29-4.06,3.06-9.98-.89-13.39-4.4-3.81-.32-9.61,4.33-9.61,1.28,0,2.6.44,3.8,1.48,6.64,5.75,8.11,15.48,4.82,23.41-3.38,8.16-11.54,13.27-20.04,14.67-1.9.31-3.8.46-5.68.46-16.5,0-31.52-11.59-37.62-26.88-6.5-16.28-2.01-35.2,8.66-48.61,11.05-13.89,28.57-21.39,46-22.67,1.63-.12,3.27-.18,4.91-.18M73.93,560.47h0c-1.92,0-3.85.07-5.75.21-22.02,1.62-41.72,11.43-54.04,26.92-6.54,8.22-11.04,17.94-13.02,28.13-2.14,10.98-1.2,21.96,2.71,31.75,3.79,9.48,10.45,18.05,18.75,24.12,8.86,6.47,19.02,9.89,29.4,9.89,2.51,0,5.04-.21,7.51-.61,13.08-2.14,24.07-10.39,28.68-21.51,5.39-12.99,2.22-27.59-7.87-36.33-3.16-2.74-7.15-4.24-11.22-4.24h0c-7.2,0-14,4.72-16.52,11.49-2.15,5.78-.94,11.89,3.14,16.43-.89.37-2.21.68-3.83.68-.5,0-1.01-.03-1.49-.09-7.27-.89-14.06-7.66-15.79-15.75-1.66-7.75.14-14.95,5.33-21.39,7.41-9.21,20.88-15.43,33.51-15.49h.24c22.44,0,41.15,14.94,45.5,36.33,5.1,25.13-3.66,53.68-21.32,69.44-9.21,8.22-20.81,12.93-31.83,12.93-.56,0-1.12-.01-1.68-.04-10.33-.44-21.72-6.66-22.48-17.32-.65-9.16-8.16-16.06-17.47-16.06-4.78,0-9.3,1.91-12.41,5.25-3.07,3.3-4.58,7.71-4.24,12.42.8,11.22,5.18,21.7,12.68,30.29,7.12,8.16,16.56,14.08,27.3,17.15,5.85,1.67,12.02,2.52,18.34,2.52,14.12,0,28.94-4.31,41.72-12.14,17.39-10.65,30.83-27.14,38.89-47.68,7.41-18.89,9.72-40.35,6.51-60.43-3.38-21.17-14.55-39.5-31.43-51.61-13.69-9.82-30.67-15.22-47.82-15.22h0Z"/>
        </g>
        <g>
          <path class="cls-7" d="M181.88,732.84c-3.39,0-6.66-.57-9.7-1.71-8.06-2.99-14.74-9.99-18.82-19.71-6.3-15.02-4.75-34.25,4.15-51.45,7.77-15.01,21.98-24.71,36.21-24.71,3.37,0,6.73.54,9.99,1.59,14.47,4.68,24.05,19.33,25.65,39.19.09.66.12,1.34.1,2.04,0,.48-.04.94-.11,1.39-1.63,16.88-10.4,38.52-30.17,48.79-5.75,2.98-11.73,4.56-17.3,4.56h0ZM193.75,658.18c-1.19,0-2.48.22-3.85.66-10.52,3.37-16.74,17.81-17.45,30.32-.4,7.06,1.79,14.81,5.21,18.42,1.48,1.57,3.05,2.3,4.94,2.3,1.34,0,2.85-.37,4.52-1.09,12.03-5.22,18.54-19.71,19.51-31.01,0,0,0,0,0,0-.5-7.58-4.44-19.61-12.88-19.61Z"/>
          <path class="cls-24" d="M193.73,640.94c2.7,0,5.47.42,8.25,1.32,14.59,4.72,20.67,20.41,21.76,34.44.06.39.09.8.06,1.24,0,.3-.03.6-.07.87-1.65,17.55-10.99,36.04-27.15,44.44-4.52,2.35-9.61,3.92-14.69,3.92-2.61,0-5.21-.41-7.73-1.35-7.48-2.78-12.56-9.43-15.56-16.58-6.26-14.91-3.3-32.63,3.96-46.65,6.04-11.66,17.91-21.65,31.18-21.65M182.6,715.55c2.05,0,4.3-.48,6.77-1.55,13.5-5.86,21.73-21.75,22.91-35.82.01-.12.03-.24.05-.35-.02-.14-.04-.27-.05-.41-.74-11.19-6.69-24.91-18.53-24.91-1.73,0-3.59.29-5.58.93-13.88,4.45-20.62,22.06-21.38,35.4-.64,11.2,4.21,26.71,15.81,26.71M193.73,629.6c-16.32,0-32.52,10.9-41.25,27.77-9.66,18.67-11.29,39.7-4.34,56.25,4.69,11.18,12.53,19.28,22.07,22.83,3.68,1.37,7.61,2.06,11.68,2.06,6.48,0,13.37-1.8,19.92-5.2,18.21-9.46,30.91-29.82,33.19-53.17.08-.61.13-1.24.14-1.88.03-.95,0-1.89-.12-2.8-1.83-22.16-12.85-38.59-29.54-43.99-3.83-1.24-7.78-1.87-11.74-1.87h0ZM182.6,704.22c-.16,0-.33,0-.82-.52-2.37-2.51-3.98-8.75-3.67-14.21.6-10.47,5.82-22.78,13.52-25.25.8-.26,1.52-.39,2.12-.39,3.16,0,6.6,6.69,7.19,13.89-.99,9.89-6.76,21.82-16.08,25.86-1.29.56-2.01.62-2.26.62h0Z"/>
        </g>
        <g>
          <path class="cls-7" d="M262.32,733.6c-11.66,0-21.41-5.45-26.75-14.95-7.57-13.46-8.12-31.8-1.43-47.85,5.69-13.66,19.07-30.37,38.07-32.53,1.2-.14,2.42-.21,3.61-.21,20.08,0,32.7,18.8,32.89,36.24.65,23.53-8.1,42.3-24.63,52.86-6.5,4.15-14.22,6.44-21.75,6.44h0ZM275.63,660.92c-3.44,0-7.64,2.16-11.82,6.07-8,7.49-12.35,18.95-11.37,29.9.59,6.56,2.56,11.42,5.26,13,1.23.72,2.72,1.08,4.43,1.08,2.79,0,6.06-.97,8.98-2.67,12.76-7.39,15.06-22.43,14.74-33.74v-.1c-.05-5.25-2.19-11.48-8.05-13.22-.71-.21-1.42-.31-2.18-.31Z"/>
          <path class="cls-24" d="M275.81,643.73c16.1,0,27.08,15.24,27.23,30.67.53,18.81-5.44,37.39-22.02,47.98-5.53,3.53-12.21,5.54-18.7,5.54-8.71,0-17.07-3.63-21.81-12.06-7.25-12.89-6.71-29.53-1.14-42.89,5.66-13.59,18.08-27.33,33.47-29.08,1.01-.11,2-.17,2.97-.17M262.14,716.64c4.14,0,8.4-1.45,11.83-3.43,13.99-8.11,17.99-23.7,17.57-38.81-.08-8.04-3.9-16.16-12.1-18.6-1.27-.38-2.53-.55-3.79-.55-5.86,0-11.52,3.69-15.69,7.6-9.34,8.75-14.28,21.8-13.14,34.55.54,6.04,2.43,14.1,8.05,17.38,2.24,1.31,4.74,1.85,7.29,1.85M275.81,632.39c-1.4,0-2.83.08-4.25.24-21.44,2.43-36.38,20.9-42.66,35.98-7.34,17.62-6.68,37.86,1.72,52.8,6.38,11.34,17.93,17.85,31.7,17.85,8.6,0,17.41-2.6,24.8-7.33,18.26-11.67,27.94-32.17,27.25-57.75-.12-10.22-3.86-20.47-10.25-28.16-7.32-8.79-17.37-13.64-28.31-13.64h0ZM260.61,705.02c-.63-.55-2.03-3.33-2.51-8.63-.83-9.25,2.84-18.93,9.6-25.26,3.58-3.35,6.51-4.54,7.94-4.54.21,0,.39.02.56.08,3.82,1.14,3.99,7.16,4,7.84v.1s0,.1,0,.1c.4,14.22-3.61,23.87-11.92,28.68-2.06,1.19-4.35,1.9-6.14,1.9-.46,0-1.1-.05-1.53-.28h0Z"/>
        </g>
        <g>
          <path class="cls-7" d="M415.97,733.94c-1.11,0-2.25-.07-3.39-.2-5.78-.67-12.7-3.13-17.13-10.34-3.62,3.77-8.84,7.92-15.56,7.92-1.98,0-3.98-.37-5.94-1.1-5.11-1.91-8.85-5.95-10.99-11.71-.8.79-1.61,1.56-2.43,2.29-6.78,6.04-14.79,9.36-22.55,9.36-3.11,0-6.19-.53-9.14-1.57-10.21-3.6-18.33-12.21-21.72-23.04-7.2-22.99,6.67-50.15,23.66-62.12,6.9-4.87,15.37-7.54,23.84-7.54,5.81,0,11.33,1.25,16.17,3.61,5.03-23.64,11.55-47.21,19.42-70.18,1.64-4.78,5.87-7.87,10.78-7.87,3.53,0,6.93,1.61,9.09,4.3,2.15,2.69,2.91,6.13,2.11,9.69-6.21,27.95-13.36,55.73-21.24,82.57-.54,1.84-1.08,3.71-1.62,5.59l-.1.33c-1.39,7.85-2.61,15.59-3.61,23.01-.21,1.52-.44,3.08-.69,4.66-.54,3.5-1.09,7.07-1.28,10.48,2.9-3.78,5.64-8.19,8.7-14.04,1.76-11.92,4.61-23.75,7.36-35.19.71-2.97,1.43-5.93,2.12-8.88,3.97-16.95,8.28-34.46,12.82-52.05,1.31-5.07,5.5-8.34,10.69-8.34,3.73,0,7.27,1.71,9.49,4.57,2.12,2.74,2.79,6.17,1.89,9.66-8.01,31.03-14.21,56.93-19.5,81.52-1.35,6.27-2.72,12.95-3.26,19.64-.05.58-.11,1.24-.18,1.94-.73,7.29-.17,9.45.42,9.97.68.4,1.31.59,1.92.59,4.22,0,9.58-7.83,12.32-12.13-.5-5.84-.03-11.82,1.39-17.44,6.3-24.94,21.17-41.66,39.78-44.72,1.84-.3,3.7-.46,5.52-.46,10.33,0,18.34,4.75,21.97,13.02,3.7,8.42,2.19,19.18-4.04,28.78-9.04,13.94-24.32,23.13-40.81,24.84,1.21,2.79,3.18,5.08,5.92,5.76.72.18,1.5.27,2.33.27,4.2,0,9.82-2.29,15.83-6.45,5.7-3.94,10.33-9.42,13.76-16.3,1.9-3.79,5.45-6.05,9.49-6.05s7.97,2.26,10.14,5.77c2.12,3.43,2.28,7.5.44,11.16-8.62,17.23-28.33,34.67-49.33,34.67h0c-2.16,0-4.32-.19-6.42-.56-6.24-1.1-11.62-3.91-15.87-8.21-6.93,7.07-14.37,10.53-22.6,10.53ZM354.57,658.35c-.57,0-1.14.04-1.7.11-9.18,1.17-15.23,9.16-18.02,13.83-4.57,7.64-8.34,19.47-5.81,27.38,1.06,3.32,3.19,5.64,6.51,7.09,1.02.45,1.98.66,2.94.66,6.52,0,14.91-10.57,21.38-26.94,1.83-4.62,3.62-9.72,5.48-15.55-1.75-4.54-6.61-6.58-10.79-6.58ZM475.71,659.36c-1.12,0-2.62.27-4.14.74-5.6,1.74-10.42,6.34-14.34,13.67-1.06,1.99-2.01,3.99-2.83,5.99,9.12-2.21,17.99-7.96,21.2-16.98.6-1.69.75-2.79.75-3.38-.17-.02-.38-.04-.66-.04Z"/>
          <path class="cls-24" d="M401,567.11c3.33,0,6.64,2.75,5.67,7.09-6.14,27.63-13.17,55.05-21.15,82.21-.6,2.04-1.2,4.12-1.8,6.22-.01.07-.03.14-.04.21-1.38,7.75-2.61,15.53-3.66,23.34-1,7.38-2.8,15.57-1.81,23.03.24,1.83.57,4.59,2.19,4.59.08,0,.17,0,.26-.02,1.94-.33,5.32-5.51,6.52-6.99,4.19-5.2,7.56-10.99,10.62-16.91.01-.02.02-.04.03-.06,2.14-15.01,6.08-29.84,9.53-44.56,4.06-17.36,8.33-34.66,12.79-51.92.74-2.85,2.94-4.09,5.2-4.09,3.43,0,7.01,2.83,5.89,7.15-7,27.12-13.66,54.36-19.56,81.74-1.45,6.73-2.81,13.51-3.37,20.37-.39,4.82-2.04,14.31,3.04,17.26,1.63.95,3.22,1.36,4.77,1.36,7.86,0,14.51-10.61,17.99-16.17.06-.09.12-.17.18-.25-.75-5.89-.33-12.01,1.04-17.43,4.45-17.61,15.67-37.3,35.2-40.52,1.52-.25,3.06-.38,4.6-.38,6.97,0,13.75,2.73,16.78,9.63,3.36,7.66.75,16.71-3.61,23.42-9.06,13.96-25.09,22.55-41.65,22.55-.49,0-.98,0-1.47-.02.54,7.02,4.25,14.83,11.61,16.66,1.21.3,2.45.44,3.7.44,6.71,0,13.9-3.89,19.05-7.45,6.78-4.69,11.94-11.09,15.61-18.42,1.03-2.07,2.71-2.92,4.42-2.92,3.79,0,7.79,4.18,5.51,8.73-7.75,15.5-25.72,31.54-44.26,31.54-1.81,0-3.62-.15-5.43-.47-7.77-1.38-13.17-5.77-16.62-11.58-5.76,7.52-13.01,13.81-22.83,13.81-.89,0-1.81-.05-2.74-.16-10.05-1.16-14.37-7.76-15.9-15.75-.99,1.3-2,2.59-3.07,3.84-3.78,4.47-8.49,9.45-14.37,9.45-1.26,0-2.58-.23-3.95-.74-7.07-2.64-9.06-10.86-9.34-17.59-.03-.7-.02-1.41-.03-2.12-2.8,4.16-6.02,8-9.8,11.37-5.28,4.7-11.89,7.93-18.78,7.93-2.4,0-4.83-.39-7.25-1.24-8.77-3.09-15.44-10.59-18.19-19.39-6.06-19.35,5.5-44.51,21.51-55.8,6.1-4.3,13.43-6.51,20.58-6.51,7.43,0,14.65,2.4,20.03,7.34,5.21-26.34,12.21-52.32,20.92-77.74.96-2.81,3.2-4.04,5.42-4.04M338.49,713.09c12.97,0,22.88-20.98,26.65-30.52,2.3-5.82,4.32-11.78,6.2-17.8-.14-.29-.27-.59-.37-.92-2.22-7.15-9.22-11.17-16.41-11.17-.81,0-1.61.05-2.42.15-9.72,1.24-17.33,8.46-22.17,16.54-7.15,11.96-13.61,35.17,3.29,42.58,1.79.78,3.53,1.14,5.22,1.14M446.28,686.45c14.04-.08,29.75-7.95,34.67-21.77.93-2.6,1.89-6.55-.02-8.98-1.19-1.52-3.16-2.02-5.23-2.02-2.08,0-4.25.51-5.82.99-8.09,2.51-13.79,9.18-17.66,16.42-2.49,4.67-4.68,9.95-5.96,15.35M401,555.78h0c-7.37,0-13.71,4.59-16.15,11.7-7.23,21.1-13.33,42.7-18.2,64.39-3.82-1.09-7.86-1.65-12.03-1.65-9.63,0-19.26,3.05-27.11,8.58-9.64,6.8-18.02,17.68-23,29.85-5.44,13.31-6.43,27.02-2.8,38.6,3.92,12.52,13.36,22.5,25.24,26.69,3.56,1.25,7.27,1.89,11.02,1.89,8.02,0,16.19-2.94,23.35-8.36,3.41,4.6,7.57,6.91,10.63,8.05,2.59.97,5.26,1.46,7.92,1.46,6.05,0,11.04-2.46,14.95-5.44,4.41,4.32,10.21,7.03,17.09,7.82,1.35.16,2.71.23,4.04.23,8.27,0,15.78-2.83,22.73-8.59,4.26,3.12,9.22,5.22,14.75,6.19,2.42.43,4.92.65,7.41.65,23.3,0,45.01-19.02,54.4-37.8,2.69-5.38,2.43-11.62-.69-16.68-2.9-4.69-7.83-7.79-13.17-8.36,4.12-9.42,4.52-19.33.91-27.56-4.51-10.28-14.66-16.41-27.16-16.41-2.13,0-4.29.18-6.44.53-20.9,3.44-37.49,21.73-44.36,48.93-1.41,5.59-1.98,11.51-1.68,17.34-1,1.52-2.13,3.12-3.32,4.56,0,0,0,.01-.01.02.03-.35.07-.67.09-.94.07-.74.14-1.42.19-2.04.52-6.34,1.84-12.82,3.15-18.91,5.28-24.5,11.46-50.33,19.45-81.3,1.33-5.15.27-10.46-2.9-14.55-3.28-4.24-8.51-6.77-13.97-6.77-3.06,0-5.92.79-8.39,2.21.26-1.15.52-2.3.77-3.45,1.16-5.2-.02-10.47-3.22-14.47-3.23-4.02-8.28-6.42-13.51-6.42h0ZM338.49,701.75c-.2,0-.47-.1-.66-.18-1.86-.82-2.81-1.83-3.39-3.63-1.88-5.9,1.31-16.12,5.27-22.75,1.82-3.04,6.82-10.22,13.87-11.11.32-.04.66-.06.99-.06,1.59,0,3.44.52,4.6,1.63-1.54,4.7-3.04,8.9-4.56,12.75-6.44,16.3-13.79,23.35-16.11,23.35h0Z"/>
        </g>
        <g>
          <path class="cls-7" d="M566.89,740.82c-14.9,0-29.29-5.13-40.52-14.45-30.26-25.09-23.21-74.49-18.78-94.56,6.24-28.26,27.25-62.55,65.9-66.22.4-.04.79-.06,1.16-.06.7,0,1.38.06,2.05.18,32.49,2.35,58.71,29.51,63.83,66.18,2.34,16.79.04,34.73-6.68,51.9-7.46,19.08-17.12,33.69-28.7,43.43-10.42,8.77-24.01,13.6-38.26,13.6h0ZM574.35,588.4c-27.79,2.76-43.39,32.34-46.53,60.49-3.8,34.08,2.15,54.35,18.7,63.79,6.13,3.5,13.44,5.43,20.59,5.43,2.12,0,4.23-.17,6.27-.5,9.82-1.6,18.14-7.18,25.45-17.04,17.33-23.41,23.79-51.16,17.27-74.25-4.7-16.64-18.25-36.54-41-37.85-.25-.01-.5-.04-.76-.07Z"/>
          <path class="cls-24" d="M574.65,571.21c.46,0,.88.05,1.28.14,32.58,2.15,54.67,30.45,58.99,61.33,2.31,16.54-.28,33.54-6.34,49.05-5.87,15-14.59,30.65-27.07,41.15-9.85,8.28-22.2,12.27-34.61,12.27-13.21,0-26.49-4.51-36.9-13.14-24.61-20.41-23.11-60.67-16.86-88.97,6.7-30.33,28.14-58.69,60.9-61.8.22-.02.42-.03.63-.03M567.11,723.79c2.41,0,4.82-.19,7.19-.58,12.33-2.01,21.78-9.38,29.09-19.26,16.45-22.21,25.87-51.88,18.17-79.17-6.08-21.55-22.65-40.61-46.13-41.97-.34-.02-.66-.07-.98-.14-.14.02-.29.05-.44.06-32.42,3.07-48.64,36.83-51.83,65.53-2.7,24.21-2.42,55.68,21.53,69.35,7.03,4.01,15.25,6.17,23.4,6.17M574.65,559.87c-.56,0-1.13.03-1.7.08-18.12,1.72-34.55,10.13-47.52,24.33-11.18,12.24-19.48,28.69-23.38,46.31-4.66,21.09-11.97,73.06,20.69,100.14,12.25,10.16,27.93,15.76,44.14,15.76s30.47-5.3,41.91-14.93c12.32-10.36,22.52-25.74,30.33-45.7,7.07-18.07,9.49-37,7.01-54.75-2.5-17.9-10.21-34.76-21.72-47.48-12.7-14.04-28.95-22.17-47.04-23.55-.9-.15-1.81-.22-2.74-.22h0ZM567.11,712.45c-6.17,0-12.49-1.66-17.78-4.68-14.35-8.19-19.39-26.69-15.88-58.24,2.14-19.19,13.16-52.24,40.91-55.42.14.01.27.02.41.03,19.77,1.14,31.68,18.88,35.87,33.73,6.04,21.41-.08,47.33-16.37,69.34-6.38,8.62-13.52,13.47-21.81,14.82-1.74.28-3.54.43-5.36.43h0Z"/>
        </g>
        <g>
          <path class="cls-7" d="M620.19,808.03c-4.06,0-8.07-2.3-10.21-5.85-2.08-3.45-2.16-7.51-.23-11.15,23.17-43.76,35.31-93.16,35.09-142.86-.01-3.06,1.1-5.88,3.15-7.93,2.1-2.11,5.11-3.32,8.25-3.32,5.79,0,10.33,3.83,11.27,9.18,6.9-5.55,13.99-8.37,21.17-8.41h.18c8.03,0,15.33,3.09,21.12,8.93,7.16,7.23,11.38,18.1,11.28,29.08-.18,19.71-8.94,37.75-23.44,48.24-9.3,6.73-17.66,10.21-25.56,10.64-.54.03-1.07.04-1.6.04h0c-4.45,0-8.86-.97-13.52-2.99-6.39,24.5-15.6,48.19-27.41,70.51-1.95,3.69-5.51,5.89-9.51,5.89ZM662.23,708.67c2.72,1.71,5.6,3.11,8.31,3.11.1,0,.21,0,.31,0,4.19-.16,8.86-3.03,13.28-6.1,8.03-5.58,13.05-15.22,14.11-27.12.45-4.99-.91-12.3-4.3-16.01-1.31-1.43-2.73-2.09-4.48-2.09-.38,0-.79.03-1.21.1-3.78.57-7.81,4.89-11.05,8.36l-.4.42c-3.72,3.97-7.03,8.53-10.14,13.94-.28.48-.58.93-.91,1.36-.87,8.02-2.06,16.08-3.53,24.04Z"/>
          <path class="cls-24" d="M656.22,642.58c2.88,0,5.76,1.85,5.78,5.56.02,3.91-.05,7.82-.17,11.72,7.18-8.81,16.38-16.44,26.87-16.5.05,0,.1,0,.15,0,17.02,0,26.87,17,26.73,32.29-.15,16.9-7.29,33.7-21.1,43.7-6.51,4.72-14.35,9.13-22.55,9.57-.43.02-.87.04-1.3.04-6.28,0-12-2.47-17.28-5.7-6.27,26.45-15.89,52.09-28.67,76.23-1.08,2.03-2.77,2.87-4.5,2.87-3.84,0-7.82-4.17-5.43-8.68,23.7-44.75,35.97-94.91,35.75-145.54-.02-3.71,2.85-5.56,5.72-5.56M670.54,717.45c.18,0,.36,0,.53-.01,5.91-.23,11.57-3.82,16.3-7.11,10.31-7.16,15.42-18.96,16.53-31.27.81-9.06-3.06-24.28-14.43-24.28-.66,0-1.35.05-2.06.16-5.93.89-10.87,6.37-14.75,10.52-4.26,4.55-7.82,9.6-10.91,15-.41.71-.89,1.26-1.43,1.69-1.01,9.78-2.47,19.51-4.37,29.15,4.35,3.07,9.22,6.17,14.58,6.17M656.22,631.24s0,0,0,0c-4.64,0-9.11,1.82-12.26,4.99-3.11,3.13-4.82,7.37-4.8,11.95.21,48.77-11.69,97.25-34.43,140.18-2.84,5.36-2.7,11.61.38,16.73,3.19,5.3,8.97,8.6,15.07,8.6s11.57-3.33,14.52-8.91c11.06-20.9,19.88-42.97,26.28-65.79,3.23.87,6.41,1.29,9.64,1.29.63,0,1.28-.02,1.91-.05,9.02-.49,18.37-4.32,28.58-11.71,15.95-11.55,25.59-31.28,25.79-52.78.11-12.46-4.72-24.84-12.92-33.12-6.88-6.94-15.58-10.61-25.15-10.61h-.21c-6.46.04-12.78,1.92-18.92,5.61-3.11-3.91-7.96-6.38-13.48-6.38h0ZM671.24,686.67c.12-.19.23-.38.35-.58,2.88-5.03,5.94-9.24,9.36-12.89l.4-.43c1.92-2.06,5.93-6.35,7.75-6.62.18-.03.3-.03.37-.03.02,0,.03,0,.04,0,1.34.9,3.57,6.53,3.09,11.93-.53,5.91-2.76,16.76-11.7,22.97-2.32,1.61-7.15,4.97-10.26,5.09h-.1c-.58,0-1.27-.18-2.01-.48,1.08-6.29,1.99-12.64,2.71-18.96h0Z"/>
        </g>
        <g>
          <path class="cls-7" d="M747.84,734.8c-15.42,0-26.63-6.61-30.76-18.14-2.18-6.08-1.26-12.64,2.52-18.01,3.64-5.17,9.31-8.26,15.18-8.26,4.36,0,8.51,1.69,12,4.88,3.43,3.14,4.55,7.7,2.91,11.9-.74,1.92-1.99,3.59-3.55,4.87.69.05,1.4.08,2.12.08,5.73,0,10.59-1.59,12.39-4.05,1.79-2.46,1.93-6.42.29-8.66-2.02-2.76-5.97-4.47-10.15-6.29-1.7-.74-3.45-1.5-5.12-2.36-9.58-4.94-16.35-13.1-18.1-21.83-1.43-7.13.5-14.09,5.58-20.15,6.41-7.64,16-12.2,25.63-12.2,7.93,0,15.37,3.09,20.94,8.71,3.26,3.29,4.2,7.93,2.46,12.12-1.84,4.42-6.17,7.38-10.78,7.38-2.91,0-5.7-1.2-7.86-3.38-1.36-1.38-3-2.07-4.87-2.07-2.54,0-5.31,1.29-7.41,3.44-.49.5-1.3,1.45-1.19,2.14.2,1.26,2.33,3.56,6.01,5.51,1.36.72,2.73,1.42,4.1,2.11,10.61,5.37,22.62,11.46,24.47,27.27,1.81,15.56-7.95,29.27-23.73,33.33-4.18,1.08-8.7,1.65-13.08,1.65h0Z"/>
          <path class="cls-24" d="M758.78,642.26c6.08,0,12.12,2.2,16.91,7.03,4.03,4.06.1,9.84-4.3,9.84-1.3,0-2.64-.5-3.83-1.7-2.58-2.6-5.72-3.75-8.89-3.75-4.13,0-8.34,1.94-11.47,5.15-6.58,6.73-.46,13.08,6.22,16.62,11.34,6.01,23.9,10.45,25.6,25.03,1.53,13.15-7,23.96-19.51,27.19-3.57.92-7.6,1.47-11.66,1.47-10.66,0-21.61-3.75-25.42-14.38-3.33-9.28,4.04-18.69,12.36-18.69,2.74,0,5.57,1.02,8.17,3.39,4.27,3.91.25,9.7-4.31,9.7-1.29,0-2.62-.46-3.83-1.56.03.03-1.25.23-1.73.98-.8,1.26.63,3.47,1.34,4.39,2.34,3.03,6.59,4.25,10.22,4.64,1.13.12,2.35.19,3.62.19,6.15,0,13.47-1.58,16.97-6.38,3.15-4.32,3.49-10.97.28-15.35-3.97-5.41-11.53-7.38-17.24-10.33-12.65-6.53-21.29-20.77-10.77-33.29,5.44-6.47,13.4-10.17,21.29-10.17M758.79,630.92h0c-11.29,0-22.49,5.31-29.97,14.22-6.14,7.31-8.56,16.16-6.8,24.91,1.09,5.45,3.77,10.68,7.67,15.26-5.79,1.33-11.07,4.9-14.72,10.08-4.79,6.8-5.99,15.47-3.22,23.19,4.91,13.71,18.41,21.89,36.1,21.89,4.85,0,9.86-.63,14.49-1.83,8.68-2.24,16.25-7.25,21.32-14.12,5.34-7.23,7.69-16.24,6.63-25.36-1.87-16.08-12.81-23.84-22.62-29.13,1.22.29,2.47.44,3.74.44,6.87,0,13.31-4.37,16.02-10.87,2.64-6.34,1.24-13.35-3.67-18.29-6.64-6.7-15.51-10.39-24.96-10.39h0ZM758.11,665.09c.21-.05.4-.07.56-.07.28,0,.48.03.84.4.33.33.68.65,1.03.96-.61-.31-1.21-.63-1.81-.94-.22-.12-.43-.23-.63-.35h0ZM756.04,704.76c.07-.77.09-1.55.05-2.32.09.09.17.19.24.28.18.43.08,1.53-.27,2,0,0-.02.02-.03.03h0Z"/>
        </g>
        <g>
          <path class="cls-7" d="M386.27,807.93c-9.91,0-19.64-1.34-28.92-4-9.9-2.83-19.08-7.23-27.95-11.49-5.66-2.71-11.5-5.52-17.34-7.8-16.11-6.3-33.16-9.5-50.67-9.5-13.9,0-27.93,2.03-41.7,6.02-8.54,2.48-17.25,5.54-25.67,8.49-21.47,7.54-43.67,15.33-67.36,15.33-1.84,0-3.7-.05-5.52-.14-31.54-1.64-59.27-19.8-72.37-47.38-1.75-3.69-1.52-7.76.63-11.17,2.22-3.51,6.08-5.7,10.07-5.7s7.63,2.31,9.47,6.19c5.94,12.51,15.41,22.41,27.38,28.62,8.59,4.46,18.76,6.73,30.23,6.73,4.82,0,9.88-.41,15.04-1.2,15.64-2.42,31.01-7.86,45.86-13.12,14.6-5.17,29.7-10.51,45.5-13.24,9.16-1.58,18.52-2.38,27.82-2.38,22.22,0,43.81,4.42,64.17,13.14,4.5,1.92,8.94,4.05,13.23,6.1,9.6,4.59,18.66,8.92,28.49,11.33,6.4,1.57,13.03,2.37,19.73,2.37,7.32,0,14.6-.95,21.64-2.81,24.39-6.45,44.49-23.88,55.15-47.82,1.77-3.98,5.3-6.36,9.44-6.36,3.92,0,7.75,2.15,9.99,5.61,2.2,3.39,2.51,7.46.86,11.17-13.99,31.41-43.36,54.81-76.65,61.07-6.8,1.28-13.71,1.93-20.56,1.93h0Z"/>
          <path class="cls-24" d="M472.63,733.82c3.7,0,7.72,4.2,5.68,8.8-13.15,29.53-40.65,51.82-72.52,57.81-6.43,1.21-12.97,1.83-19.51,1.83-9.23,0-18.46-1.23-27.36-3.78-15.7-4.49-29.66-13.2-44.79-19.12-17.04-6.67-34.86-9.89-52.73-9.89-14.51,0-29.07,2.12-43.27,6.24-30.15,8.75-59.52,23.6-91.45,23.6-1.73,0-3.48-.04-5.23-.13-28.84-1.5-55.05-17.83-67.54-44.15-2.17-4.58,1.83-8.76,5.58-8.76,1.71,0,3.36.87,4.35,2.96,6.37,13.42,16.68,24.36,29.89,31.22,10.15,5.27,21.48,7.36,32.84,7.36,5.34,0,10.68-.46,15.91-1.27,31.55-4.88,60.04-20.95,91.46-26.38,8.9-1.54,17.89-2.3,26.85-2.3,21.2,0,42.3,4.27,61.94,12.68,14.15,6.06,27.54,14.03,42.6,17.73,6.89,1.69,13.99,2.53,21.08,2.53,7.78,0,15.57-1.01,23.09-3,26.42-6.99,47.83-26.17,58.88-50.99.94-2.12,2.57-3,4.26-3M472.63,722.48c-6.34,0-11.95,3.73-14.62,9.73-9.96,22.36-28.7,38.63-51.42,44.64-6.57,1.74-13.37,2.62-20.2,2.62-6.24,0-12.43-.74-18.38-2.2-9.26-2.27-18.07-6.48-27.39-10.94-4.35-2.08-8.84-4.23-13.45-6.2-21.07-9.02-43.41-13.59-66.4-13.59-9.62,0-19.31.83-28.78,2.47-16.27,2.81-31.6,8.24-46.42,13.48-15.29,5.41-29.72,10.52-44.84,12.86-4.88.76-9.65,1.14-14.18,1.14-10.54,0-19.83-2.05-27.61-6.09-10.87-5.65-19.47-14.64-24.87-26.02-2.76-5.82-8.35-9.43-14.59-9.43-5.92,0-11.61,3.19-14.86,8.34-3.17,5.01-3.53,11.23-.96,16.63,13.99,29.46,43.57,48.86,77.2,50.61,1.91.1,3.87.15,5.82.15,24.66,0,47.32-7.96,69.24-15.65,8.73-3.07,16.97-5.96,25.36-8.39,13.26-3.85,26.75-5.8,40.12-5.8,16.8,0,33.16,3.06,48.6,9.11,5.64,2.21,11.13,4.84,16.95,7.63,9.09,4.36,18.48,8.87,28.85,11.83,9.78,2.8,20.04,4.21,30.48,4.21,7.2,0,14.47-.68,21.61-2.02,35.1-6.6,66.05-31.25,80.78-64.34,2.41-5.42,1.93-11.61-1.29-16.56-3.28-5.05-8.93-8.19-14.75-8.19h0Z"/>
        </g>
      </g>
      <g>
        <path class="cls-24" d="M182.6,715.55c2.04,0,4.3-.48,6.77-1.55,13.5-5.86,21.73-21.75,22.91-35.82.01-.12.03-.24.05-.35-.02-.14-.04-.27-.05-.41-.74-11.2-6.68-24.91-18.53-24.91-1.74,0-3.59.29-5.58.93-13.88,4.45-20.62,22.06-21.38,35.4-.64,11.2,4.2,26.71,15.81,26.71ZM193.75,663.85c3.16,0,6.6,6.69,7.19,13.89-.99,9.89-6.76,21.81-16.08,25.86-1.29.55-2.01.61-2.26.61-.17,0-.33,0-.83-.52-2.36-2.5-3.97-8.74-3.66-14.21.59-10.47,5.82-22.77,13.52-25.24.81-.26,1.52-.39,2.12-.39Z"/>
        <path class="cls-24" d="M246.8,697.4c.55,6.04,2.43,14.11,8.05,17.39,2.24,1.3,4.74,1.85,7.29,1.85,4.14,0,8.4-1.45,11.82-3.43,14-8.11,17.99-23.7,17.57-38.81-.08-8.03-3.89-16.16-12.1-18.6-1.27-.38-2.54-.55-3.8-.55-5.86,0-11.52,3.69-15.69,7.6-9.34,8.75-14.28,21.81-13.14,34.55ZM267.69,671.13c3.58-3.35,6.51-4.54,7.94-4.54.21,0,.39.02.57.08,3.82,1.13,3.99,7.16,3.99,7.84v.21c.4,14.22-3.61,23.86-11.91,28.68-2.06,1.19-4.35,1.9-6.14,1.9-.47,0-1.1-.05-1.54-.28-.62-.55-2.03-3.33-2.5-8.63-.84-9.26,2.84-18.94,9.59-25.26Z"/>
        <path class="cls-24" d="M480.95,664.68c.93-2.59,1.89-6.55-.01-8.97-1.19-1.52-3.17-2.02-5.23-2.02s-4.25.51-5.82.99c-8.08,2.51-13.79,9.18-17.65,16.42-2.49,4.67-4.69,9.95-5.96,15.35,14.04-.08,29.75-7.95,34.67-21.77Z"/>
        <path class="cls-24" d="M354.57,652.68c-.81,0-1.62.05-2.42.15-9.72,1.24-17.33,8.46-22.17,16.54-7.15,11.96-13.61,35.17,3.29,42.58,1.79.78,3.53,1.14,5.22,1.14,12.97,0,22.88-20.98,26.65-30.52,2.3-5.82,4.33-11.78,6.21-17.8-.14-.29-.27-.59-.37-.92-2.22-7.15-9.23-11.17-16.41-11.17ZM354.6,678.4c-6.44,16.3-13.79,23.35-16.11,23.35-.2,0-.47-.1-.66-.18-1.87-.82-2.82-1.84-3.39-3.63-1.88-5.9,1.31-16.12,5.27-22.75,1.82-3.04,6.82-10.21,13.87-11.11.32-.04.66-.06.99-.06,1.59,0,3.43.52,4.59,1.63-1.54,4.7-3.04,8.9-4.56,12.75Z"/>
        <path class="cls-24" d="M621.56,624.78c-6.08-21.55-22.64-40.61-46.13-41.97-.34-.02-.66-.07-.97-.14-.15.03-.29.05-.44.07-32.42,3.07-48.63,36.83-51.83,65.53-2.7,24.2-2.42,55.68,21.52,69.34,7.03,4.02,15.25,6.18,23.4,6.18,2.41,0,4.82-.19,7.19-.58,12.33-2.01,21.78-9.38,29.09-19.26,16.45-22.21,25.87-51.89,18.17-79.17ZM567.11,712.45c-6.17,0-12.49-1.66-17.78-4.68-14.34-8.19-19.39-26.7-15.87-58.25,2.13-19.18,13.15-52.24,40.91-55.42.13.01.27.02.41.03,19.77,1.14,31.68,18.89,35.87,33.73,6.05,21.41-.07,47.34-16.37,69.34-6.38,8.62-13.52,13.47-21.81,14.82-1.74.28-3.54.43-5.36.43Z"/>
        <path class="cls-24" d="M689.47,654.77c-.66,0-1.35.06-2.06.16-5.93.89-10.86,6.37-14.75,10.52-4.26,4.55-7.81,9.6-10.91,15-.41.71-.89,1.26-1.43,1.69-1,9.78-2.46,19.5-4.36,29.14,4.35,3.07,9.22,6.17,14.58,6.17.18,0,.35-.01.53-.01,5.91-.23,11.57-3.83,16.3-7.11,10.31-7.17,15.42-18.96,16.53-31.27.81-9.06-3.06-24.29-14.43-24.29ZM680.9,701.02c-2.32,1.61-7.15,4.97-10.27,5.09h-.09c-.58,0-1.27-.18-2.01-.48,1.08-6.29,1.99-12.64,2.71-18.96.12-.19.23-.39.35-.58,2.88-5.03,5.94-9.25,9.35-12.89l.4-.43c1.93-2.06,5.93-6.35,7.76-6.62.18-.03.3-.04.37-.04h.04c1.35.9,3.58,6.54,3.09,11.93-.53,5.91-2.75,16.76-11.7,22.98Z"/>
        <path class="cls-24" d="M790.28,699.17c-1.87-16.08-12.81-23.84-22.62-29.13,1.21.28,2.47.43,3.74.43,6.87,0,13.3-4.37,16.01-10.87,2.64-6.34,1.24-13.35-3.66-18.29-6.65-6.7-15.51-10.39-24.97-10.39-11.28,0-22.49,5.32-29.97,14.22-2.77,3.3-4.78,6.91-5.99,10.69-2.17-4.98-5.16-9.5-8.83-13.2-6.88-6.94-15.58-10.61-25.15-10.61h-.22c-6.46.03-12.78,1.91-18.92,5.61-3.11-3.91-7.95-6.39-13.48-6.39-3.49,0-6.9,1.04-9.71,2.91-.1-1.02-.23-2.03-.37-3.04-2.5-17.9-10.21-34.76-21.71-47.48-12.71-14.04-28.96-22.17-47.04-23.55-.9-.14-1.82-.21-2.74-.21-.56,0-1.13.02-1.7.08-18.12,1.71-34.55,10.13-47.52,24.33-11.18,12.24-19.49,28.69-23.38,46.31-.75,3.39-1.56,7.58-2.28,12.34-5.22-7.53-14.08-11.89-24.62-11.89-2.13,0-4.29.18-6.44.53-20.91,3.44-37.49,21.74-44.36,48.93-1.41,5.59-1.98,11.51-1.67,17.34-1,1.51-2.13,3.12-3.33,4.56h0c.03-.34.06-.65.09-.93.08-.74.14-1.42.19-2.04.52-6.34,1.84-12.82,3.16-18.91,5.27-24.49,11.46-50.33,19.45-81.29,1.33-5.16.27-10.46-2.9-14.55-3.28-4.24-8.5-6.77-13.97-6.77-3.06,0-5.92.79-8.39,2.21.26-1.15.52-2.3.77-3.45,1.16-5.2-.02-10.48-3.22-14.47-3.23-4.02-8.28-6.43-13.52-6.43-7.37,0-13.71,4.6-16.15,11.7-7.23,21.1-13.33,42.7-18.19,64.4-3.82-1.09-7.87-1.66-12.03-1.66-9.63,0-19.26,3.05-27.11,8.58-6.38,4.5-12.2,10.78-16.85,18.05-1.66-3.93-3.87-7.6-6.55-10.81-7.31-8.8-17.37-13.64-28.31-13.64-1.4,0-2.83.08-4.25.24-18.13,2.05-31.61,15.58-39.14,28.83-4.47-14.99-14.01-25.81-26.96-30-3.82-1.24-7.77-1.86-11.74-1.86-15.27,0-30.43,9.55-39.47,24.6.68-9.01.34-18.09-1.07-26.9-3.38-21.17-14.55-39.5-31.43-51.61-13.69-9.82-30.67-15.22-47.82-15.22-1.92,0-3.85.07-5.75.21-22.01,1.61-41.71,11.42-54.04,26.92-6.54,8.22-11.04,17.94-13.02,28.12-2.14,10.98-1.2,21.96,2.7,31.75,3.79,9.49,10.45,18.05,18.76,24.12,8.85,6.47,19.02,9.89,29.4,9.89,2.51,0,5.03-.2,7.51-.61,13.08-2.14,24.07-10.38,28.68-21.51,5.39-12.99,2.23-27.59-7.87-36.33-3.16-2.74-7.15-4.24-11.22-4.25-3.61,0-7.11,1.18-10.02,3.21-2.91,2.03-5.24,4.9-6.5,8.28-2.16,5.78-.94,11.89,3.13,16.44-.88.37-2.21.68-3.82.68-.51,0-1.01-.03-1.49-.09-7.27-.9-14.06-7.67-15.79-15.76-1.66-7.74.14-14.94,5.33-21.39,7.41-9.21,20.87-15.43,33.51-15.49h.24c22.44,0,41.15,14.93,45.5,36.32,5.1,25.13-3.67,53.69-21.32,69.44-9.21,8.22-20.81,12.93-31.84,12.93-.55,0-1.12-.01-1.67-.03-10.33-.45-21.72-6.67-22.48-17.33-.65-9.15-8.16-16.06-17.47-16.06-4.78,0-9.3,1.92-12.41,5.25-3.07,3.3-4.58,7.71-4.24,12.42.8,11.23,5.18,21.7,12.68,30.29,6.33,7.26,14.51,12.76,23.81,16.03-2.81,4.9-3.03,10.81-.57,15.99,13.99,29.46,43.57,48.85,77.19,50.6,1.92.1,3.88.15,5.82.15,24.66,0,47.32-7.96,69.24-15.65,8.73-3.07,16.98-5.96,25.37-8.4,13.25-3.84,26.75-5.79,40.11-5.79,16.8,0,33.16,3.06,48.6,9.1,5.65,2.21,11.14,4.85,16.96,7.64,9.08,4.35,18.48,8.86,28.84,11.82,9.79,2.8,20.04,4.22,30.48,4.22,7.2,0,14.47-.68,21.61-2.02,35.1-6.6,66.06-31.26,80.79-64.34,2.41-5.42,1.93-11.61-1.29-16.57-.11-.17-.23-.34-.35-.51,7.97-4.71,15.05-11.15,20.6-18.2,3.67,6.96,8.6,13.36,15.12,18.77,12.25,10.16,27.92,15.75,44.14,15.75s30.47-5.3,41.91-14.92c10.65-8.96,19.72-21.67,27.03-37.85-4.97,33.04-15.48,65.15-31.1,94.66-2.84,5.36-2.69,11.61.38,16.73,3.2,5.3,8.97,8.6,15.08,8.6s11.56-3.33,14.51-8.91c11.07-20.9,19.88-42.97,26.29-65.79,3.22.87,6.41,1.29,9.64,1.29.63,0,1.28-.01,1.91-.05,9.02-.49,18.37-4.32,28.58-11.71,3.94-2.85,7.49-6.2,10.62-9.95,4.92,13.71,18.41,21.89,36.1,21.89,4.85,0,9.86-.63,14.49-1.82,8.68-2.24,16.25-7.25,21.32-14.12,5.34-7.23,7.69-16.24,6.63-25.36ZM747.84,729.13c-10.66,0-21.61-3.75-25.42-14.38-3.33-9.28,4.04-18.69,12.36-18.69,2.73,0,5.57,1.02,8.17,3.39,4.27,3.91.25,9.7-4.31,9.7-1.29,0-2.63-.46-3.83-1.56,0,.04-1.26.24-1.73.98-.8,1.25.63,3.47,1.34,4.39,2.34,3.03,6.59,4.25,10.22,4.64,1.13.12,2.35.19,3.62.19,6.15,0,13.47-1.58,16.97-6.38,3.15-4.32,3.49-10.98.28-15.35-3.97-5.41-11.53-7.39-17.24-10.34-12.65-6.52-21.29-20.77-10.78-33.29,5.44-6.47,13.41-10.17,21.29-10.17,6.09,0,12.12,2.2,16.92,7.04,4.03,4.06.1,9.83-4.3,9.83-1.3,0-2.65-.5-3.84-1.7-2.58-2.6-5.72-3.75-8.89-3.75-4.14,0-8.34,1.94-11.47,5.15-6.58,6.73-.46,13.08,6.22,16.62,11.34,6.01,23.9,10.45,25.6,25.03,1.53,13.15-7.01,23.96-19.51,27.19-3.58.92-7.6,1.46-11.67,1.46ZM670.63,728.95c-6.29,0-12-2.46-17.28-5.7-6.27,26.45-15.89,52.1-28.67,76.23-1.07,2.03-2.77,2.88-4.49,2.88-3.84,0-7.83-4.17-5.44-8.68,23.7-44.75,35.97-94.91,35.75-145.54-.02-3.71,2.85-5.56,5.72-5.56s5.77,1.86,5.78,5.56c.02,3.91-.04,7.82-.17,11.72,7.17-8.81,16.38-16.45,26.86-16.51h.15c17.02,0,26.87,17.01,26.73,32.3-.15,16.9-7.29,33.7-21.1,43.7-6.51,4.71-14.34,9.12-22.55,9.57-.43.02-.86.03-1.29.03ZM566.89,735.15c-13.21,0-26.49-4.51-36.9-13.15-6.95-5.76-11.81-13.11-15.07-21.32-2.8-7-4.42-14.64-5.18-22.46-1.5-15.49.4-31.7,3.38-45.19,6.71-30.33,28.14-58.69,60.9-61.8.22-.02.42-.03.63-.03.46,0,.88.05,1.28.15,32.57,2.15,54.67,30.44,58.98,61.33,2.31,16.54-.27,33.54-6.34,49.05-5.86,15-14.58,30.65-27.07,41.15-9.85,8.28-22.2,12.27-34.61,12.27ZM478.31,742.63c-13.15,29.53-40.66,51.81-72.52,57.8-6.44,1.21-12.98,1.83-19.52,1.83-9.23,0-18.46-1.23-27.36-3.78-15.7-4.49-29.66-13.2-44.78-19.12-17.05-6.66-34.86-9.88-52.74-9.88-14.51,0-29.06,2.12-43.27,6.24-30.15,8.75-59.52,23.6-91.45,23.6-1.73,0-3.48-.04-5.23-.13-28.83-1.5-55.04-17.83-67.54-44.15-1.66-3.5.28-6.76,2.96-8.1,1.87.25,3.77.43,5.68.51.49.44.93,1.03,1.29,1.78,6.38,13.42,16.68,24.36,29.89,31.23,10.16,5.27,21.48,7.36,32.84,7.36,5.34,0,10.68-.46,15.91-1.27,31.55-4.88,60.04-20.95,91.46-26.37,8.9-1.54,17.89-2.31,26.85-2.31,21.21,0,42.31,4.28,61.94,12.68,14.15,6.06,27.54,14.03,42.6,17.73,6.9,1.69,13.99,2.53,21.08,2.53,7.79,0,15.57-1.01,23.1-3,26.27-6.95,47.58-25.96,58.68-50.58.07-.13.13-.27.19-.41.95-2.12,2.57-3,4.26-3,1.27,0,2.57.49,3.66,1.33,2.09,1.6,3.37,4.45,2.02,7.48ZM24.39,691.27c2.88,0,5.9,1.85,6.16,5.53,1.21,16.97,17.56,27.17,33.3,27.84.72.03,1.44.05,2.16.05,14.52,0,28.62-6.2,39.39-15.81,21.56-19.24,30.57-52.12,24.88-80.15-5.51-27.11-29.09-45.41-56.61-45.41h-.3c-26.29.12-56.15,21.19-49.87,50.6,2.61,12.19,12.79,23.07,25.49,24.63.94.11,1.9.17,2.88.17,5.09,0,10.54-1.62,13.76-5.59,3.29-4.05,3.07-9.98-.88-13.39-4.4-3.81-.33-9.62,4.33-9.62,1.28,0,2.6.44,3.8,1.48,6.64,5.75,8.11,15.48,4.82,23.42-3.38,8.15-11.53,13.27-20.04,14.66-1.91.31-3.8.46-5.68.46-16.5,0-31.53-11.59-37.63-26.87-6.49-16.28-2.01-35.2,8.67-48.61,11.05-13.9,28.57-21.4,45.99-22.68,1.64-.12,3.28-.18,4.92-.18,14.56.01,29.43,4.65,41.21,13.1,14.8,10.61,23.98,26.25,26.84,44.19,5.78,36.12-8.05,77-40.13,96.65-10.63,6.51-23.24,10.47-35.79,10.47-.12,0-.24,0-.36,0-1.93-.82-4.04-1.26-6.22-1.26-1.18,0-2.34.13-3.49.38-1.74-.31-3.46-.7-5.17-1.19-17.22-4.91-30.48-19.17-31.77-37.33-.27-3.7,2.47-5.53,5.34-5.53ZM193.72,640.94c2.71,0,5.47.41,8.25,1.31,14.59,4.72,20.67,20.41,21.76,34.44.06.38.08.8.06,1.24,0,.3-.02.6-.07.87-1.65,17.56-10.98,36.05-27.15,44.44-4.52,2.35-9.61,3.93-14.69,3.93-2.61,0-5.21-.42-7.73-1.35-7.48-2.78-12.56-9.43-15.56-16.59-6.26-14.91-3.3-32.63,3.96-46.65,6.03-11.66,17.91-21.64,31.17-21.64ZM275.81,643.73c15.53,0,26.3,14.18,27.18,29.03-2.89,8.51-3.96,17.07-3.17,25.04-3.31,9.84-9.32,18.52-18.8,24.58-5.53,3.53-12.21,5.55-18.7,5.55-8.71,0-17.07-3.63-21.81-12.07-7.25-12.89-6.71-29.52-1.14-42.89,5.65-13.58,18.08-27.33,33.47-29.07,1.01-.12,2-.17,2.97-.17ZM170.2,736.45c3.68,1.36,7.61,2.05,11.68,2.05,6.48,0,13.37-1.79,19.92-5.2,9.9-5.14,18.17-13.5,24.02-23.82,1.12,4.23,2.72,8.24,4.8,11.94,6.38,11.34,17.93,17.84,31.7,17.84,8.6,0,17.41-2.6,24.8-7.32,7.2-4.6,13.07-10.58,17.49-17.7,4.79,9.19,12.78,16.32,22.35,19.7,3.56,1.26,7.27,1.89,11.02,1.89,8.02,0,16.19-2.94,23.36-8.36,3.41,4.61,7.57,6.91,10.62,8.06,2.6.97,5.26,1.46,7.93,1.46,6.05,0,11.03-2.46,14.94-5.44,4.41,4.32,10.22,7.03,17.1,7.82,1.35.16,2.71.23,4.04.23,8.27,0,15.78-2.82,22.72-8.59,4.26,3.12,9.22,5.22,14.75,6.2.66.12,1.32.22,1.99.3-10.43,19.62-27.95,33.82-48.83,39.34-6.58,1.74-13.37,2.62-20.2,2.62-6.24,0-12.42-.74-18.37-2.2-9.26-2.27-18.07-6.49-27.4-10.94-4.34-2.08-8.84-4.23-13.44-6.2-21.08-9.02-43.42-13.59-66.41-13.59-9.62,0-19.31.83-28.78,2.46-16.27,2.81-31.6,8.24-46.42,13.49-15.29,5.41-29.72,10.52-44.84,12.86-4.88.75-9.65,1.13-14.18,1.13-10.54,0-19.83-2.04-27.61-6.08-10.04-5.22-18.14-13.29-23.57-23.46,11.17-1.44,22.4-5.41,32.39-11.53,15.56-9.53,27.96-23.73,36.17-41.33.27,6.89,1.66,13.51,4.19,19.54,4.69,11.18,12.53,19.28,22.07,22.83ZM476.44,722.93c-1.24-.3-2.52-.45-3.81-.45-3.95,0-7.62,1.45-10.47,4-.44.02-.87.03-1.31.03-1.81,0-3.62-.15-5.43-.47-7.77-1.37-13.17-5.77-16.62-11.58-5.76,7.52-13.01,13.81-22.83,13.81-.9,0-1.81-.06-2.74-.16-10.05-1.16-14.37-7.76-15.91-15.75-.99,1.3-2,2.59-3.06,3.84-3.79,4.47-8.5,9.45-14.37,9.45-1.27,0-2.58-.23-3.95-.74-7.07-2.65-9.07-10.87-9.35-17.59-.03-.71-.02-1.42-.02-2.12-2.8,4.16-6.02,8-9.81,11.37-5.28,4.7-11.89,7.92-18.78,7.92-2.39,0-4.83-.39-7.25-1.24-8.77-3.09-15.43-10.59-18.19-19.39-.51-1.62-.89-3.28-1.15-4.97l2.98-24.3c4.04-10.78,11.24-20.58,19.68-26.53,6.1-4.3,13.44-6.51,20.58-6.51s14.65,2.4,20.03,7.34c5.2-26.35,12.21-52.32,20.92-77.74.96-2.81,3.19-4.04,5.42-4.04,3.33,0,6.64,2.75,5.67,7.1-6.14,27.62-13.17,55.05-21.14,82.2-.6,2.05-1.2,4.13-1.81,6.23,0,.07-.02.14-.04.21-1.37,7.75-2.6,15.53-3.66,23.34-1,7.38-2.8,15.57-1.81,23.02.25,1.84.57,4.59,2.19,4.59.09,0,.17-.01.27-.02,1.93-.33,5.32-5.51,6.51-6.99,4.2-5.2,7.57-10.99,10.63-16.91.01-.03.02-.04.03-.06,2.14-15.01,6.08-29.84,9.53-44.56,4.06-17.36,8.33-34.66,12.79-51.92.73-2.86,2.93-4.09,5.2-4.09,3.43,0,7,2.83,5.89,7.14-7,27.13-13.66,54.36-19.56,81.75-1.45,6.72-2.81,13.5-3.37,20.37-.39,4.82-2.04,14.31,3.04,17.26,1.63.95,3.23,1.36,4.78,1.36,7.85,0,14.51-10.61,17.99-16.17.06-.09.12-.17.18-.25-.75-5.89-.34-12.01,1.03-17.43,4.45-17.61,15.67-37.3,35.21-40.52,1.52-.25,3.06-.38,4.6-.38,6.97,0,13.75,2.72,16.78,9.63,3.36,7.66.74,16.71-3.61,23.42-9.05,13.96-25.08,22.54-41.65,22.54-.49,0-.98,0-1.47-.02.54,7.02,4.25,14.83,11.62,16.66,1.2.3,2.44.44,3.7.44,6.71,0,13.9-3.89,19.05-7.46,6.78-4.69,11.94-11.09,15.61-18.42.99-1.97,2.57-2.84,4.2-2.91.71,4.49,1.73,8.97,3.12,13.34-5.94,9.48-15.37,18.53-26.06,23.33ZM726.65,681.23c.9,1.41,1.92,2.77,3.03,4.08-1.25.29-2.48.68-3.67,1.18.28-1.73.49-3.49.64-5.26ZM756.09,702.44c.09.09.17.19.24.28.19.43.08,1.53-.26,2.01l-.03.03c.07-.78.09-1.55.05-2.32ZM760.54,666.37c-.61-.31-1.21-.62-1.81-.94-.22-.11-.43-.23-.62-.34.2-.05.39-.07.56-.07.28,0,.48.02.84.4.34.33.68.65,1.03.95Z"/>
      </g>
      <path class="cls-31" d="M414.64,566.08c.58-2.89,1.17-5.77,1.75-8.66-3.77-.51-7.53-1.02-11.3-1.53-1.17,15.6-.38,31.11,2.09,46.55.94,5.88,9.63,5.06,11.09,0,4.24-14.7,4.88-29.81,2.24-44.85-1.09-6.19-9.28-4.68-11.09,0-5.99,15.43-6.32,32.57-1.04,48.26,1.75,5.2,9.57,5.72,11.09,0,4.89-18.35,2.78-37.5-5.72-54.44-2.31-4.6-9.17-3.11-10.51,1.37-5.33,17.75-5.81,36.36-1.6,54.4,1.05,4.51,8.48,5.96,10.51,1.37,7.54-17.03,8.65-36.05,2.25-53.65-1.87-5.15-9.46-5.76-11.09,0-5.99,21.19-6.11,43.5-.39,64.76,1.34,4.98,7.86,5.4,10.51,1.37,5.8-8.8,8.91-18.74,9.5-29.24.29-5.26-6.35-7.21-9.82-4.07-8.32,7.52-12.67,18.79-11.17,29.95.55,4.1,4.52,7.46,8.66,4.97,17.86-10.76,35.14-22.43,51.79-34.98,4.26-3.21,3.31-10.76-2.9-10.72-1.57.01-5.51-7.69-6.73-9.17-2.88-3.49-6.45-6.48-10.31-8.82-7.81-4.74-17.18-6.88-26.25-5.8.51,3.77,1.02,7.53,1.53,11.3,11.41-3.27,24.76,5.4,25.6,17.51,3.57-.97,7.15-1.94,10.72-2.9-3.98-7.21-9.27-13.57-15.76-18.65-5.2-4.07-13.48-10.35-20.01-5.33-6.1,4.68-3.12,14.44-.9,20.45,2.51,6.79,7.27,13.3,14.94,14.2,5.94.69,12.54-2,15.34-7.48,3.08-6.03-.06-13.06-6.01-15.74-15.34-6.91-26.88,12.86-23.83,26.14,2.21,9.63,13.19,10.45,19.48,4.11,6.4-6.46,7.83-16.92,4.95-25.27-1.52-4.42-6.14-5.23-9.61-2.54-5.15,4-9.68,8.55-13.64,13.72-3.68,4.81-8.09,10.69-6.98,17.13.98,5.69,6.05,10.23,12,9.16s10.83-8.05,13.84-12.87c4.44-7.12,11.82-26.6-2.78-27.83-12.15-1.02-19.24,13.04-16.98,23.38,1.58,7.23,12.67,4.17,11.09-3.06-.42-1.92-.12-3.81.85-5.52.62-1.08,1.7-1.61,2.33-2.58l1.12-.63c-.84-1.31-1.2-1.5-1.09-.57-1.08,1.77-1.26,4.85-2.2,6.88-1.22,2.62-2.76,5.15-4.56,7.42-.69.87-2.32,1.94-2.64,2.9-.86.49-.75,1.02.34,1.58l.24-1.35c1.71-1.72,2.85-4.92,4.37-6.93,3.65-4.82,8.06-9,12.83-12.69-3.2-.85-6.41-1.69-9.61-2.54,1.41,4.09,1.51,8.39-.71,12.24-.66,1.14-1.86,1.78-2.49,2.77l1.08.69-.11-1.1c.75-1.64.52-4.32,1.06-6.15.96-3.27,2.5-6.23,6.17-6.27,2.95-.04.18,1.58-1.63,1.67-3.46.18-5.28-3.81-6.28-6.57-.73-2.01-1.25-4.14-1.67-6.24-.04-.23-.29-2.49-.41-2.55-.78.58-1.56,1.15-2.33,1.73l1.06.48c1.04,1.46,4.3,2.63,5.84,3.8,1.84,1.41,3.57,2.98,5.2,4.64,3.28,3.36,5.93,7.11,8.2,11.22,2.67,4.83,11.12,2.86,10.72-2.9-1.34-19.4-21.2-34.03-40.16-28.6-5.98,1.71-5.12,12.09,1.53,11.3,9.06-1.08,18.17,1.39,25,7.61,6.08,5.55,8.57,16.24,18.29,16.18-.97-3.57-1.94-7.15-2.9-10.72-16.65,12.55-33.93,24.22-51.79,34.98,2.89,1.66,5.77,3.31,8.66,4.97-1.13-8.45,1.44-16.07,7.8-21.82l-9.82-4.07c-.48,8.54-3.23,16.31-7.92,23.43,3.5.46,7.01.92,10.51,1.37-5.2-19.34-5.06-39.38.39-58.64h-11.09c5.29,14.55,5.22,30.54-1.09,44.79l10.51,1.37c-3.75-16.06-3.14-32.49,1.6-48.28-3.5.46-7.01.92-10.51,1.37,7.11,14.17,8.63,30.29,4.56,45.58h11.09c-4.69-13.96-4.28-28.42,1.04-42.14h-11.09c2.28,12.98,1.4,26.1-2.24,38.74h11.09c-2.3-14.39-2.77-28.96-1.68-43.49.48-6.42-10.01-7.89-11.3-1.53-.58,2.89-1.17,5.77-1.75,8.66-1.46,7.23,9.63,10.32,11.09,3.06h0Z"/>
      <path class="cls-31" d="M463.27,574.13c-1.26-.99-2.71-1.46-4.11-1.47,0-.14,0-.28,0-.42.02-5.54-.59-10.72-3.04-15.75-1.43-2.93-5.49-3.56-8.08-1.93-1.28-2.79-3.36-5.01-6.67-5.89-2.22-.59-4.28.17-5.68,1.7-.45-.64-.94-1.24-1.5-1.77-4.31-4.09-9.6-2.23-12.18,1.87-1.99-.74-4.19-.69-6.09.17-1.09-1.44-2.91-2.33-4.74-2.5-14.48-1.33-9.96,20.5-9.6,28.73.6,13.71.84,27.43.79,41.15-.02,4.86,4.93,6.53,8.34,5.01,1.19.7,2.69.95,4.43.68,4.76-.76,7.04-4.55,8.1-9.19,2.62,1.85,5.9,2.21,9.12-.52,2.39-2.03,3.22-5.05,3.37-8.32,1.44.4,3.09.29,4.95-.57,1.89-.87,3.1-2.36,3.86-4.19,2.98,1.42,6.54.13,7.98-3.51.38-.95.67-1.91.9-2.87,3.11,2.21,7.39,1.07,8.91-2.97.07-.2.14-.4.21-.59,1.11-.42,2.13-1.19,2.89-2.37,3-4.62,2.28-11.01-2.15-14.47Z"/>
      <path class="cls-31" d="M414.81,619.56c2.14-21.75,3.55-43.56,4.23-65.41.23-7.41-11.28-7.4-11.5,0-.67,21.85-2.08,43.65-4.23,65.41-.73,7.36,10.78,7.31,11.5,0h0Z"/>
      <path class="cls-26" d="M413.33,624.47c3.82-24.74,7.15-49.56,9.99-74.43.84-7.34-10.67-7.28-11.5,0-2.72,23.85-5.92,47.64-9.58,71.37-1.12,7.24,9.97,10.36,11.09,3.06h0Z"/>
      <path class="cls-26" d="M413.05,618.81c-1.35-21.3-1.86-42.63-1.51-63.96.12-7.41-11.38-7.41-11.5,0-.35,21.34.16,42.67,1.51,63.96.47,7.35,11.97,7.4,11.5,0h0Z"/>
      <path class="cls-26" d="M413.26,567.85c7.81-7.76,18.02-11.54,28.98-10.98,7.4.38,7.38-11.13,0-11.5-13.89-.71-27.28,4.56-37.12,14.35-5.26,5.23,2.88,13.36,8.13,8.13h0Z"/>
      <path class="cls-28" d="M410.08,628.7c14.91-16.88,30.76-32.88,47.49-47.95-3.2-1.87-6.41-3.73-9.61-5.6l-.26,1,2.64-3.44,1.03-.17c-7.41-.18-7.4,11.33,0,11.5,3.86.09,6.71-2.1,7.68-5.83,1.49-5.73-5.41-9.39-9.61-5.6-16.73,15.08-32.58,31.08-47.49,47.95-4.89,5.53,3.22,13.7,8.13,8.13h0Z"/>
      <path class="cls-28" d="M421.75,625.19c13.31-12.83,26.63-25.65,39.94-38.48,5.34-5.15-2.8-13.27-8.13-8.13-13.31,12.83-26.63,25.65-39.94,38.48-5.34,5.15,2.8,13.27,8.13,8.13h0Z"/>
      <circle class="cls-24" cx="521.56" cy="784.61" r="9.17"/>
      <circle class="cls-24" cx="709.58" cy="772.68" r="9.17"/>
      <circle class="cls-24" cx="293.63" cy="806.62" r="9.17"/>
      <circle class="cls-24" cx="259.7" cy="805.7" r="7.34"/>
      <circle class="cls-24" cx="230.81" cy="807.08" r="5.04"/>
      <g>
        <path class="cls-24" d="M756.5,95.07c7.79-16.15.99-35.62-15.15-43.41L640.98,3.23c-4.43-2.14-9.17-3.23-14.08-3.23-12.44,0-23.95,7.22-29.34,18.38l-8.41,17.44c-.59,1.22-1,2.49-1.24,3.76-5.6.24-10.71,3.59-13.16,8.66l-4.33,8.98c-15.58-10.48-32.15-19.44-49.61-26.83-36.49-15.43-75.24-23.26-115.18-23.26-18.44,0-36.62,1.67-54.45,4.99h-14.42c-2.76.01-5.16,1.87-5.87,4.52-13.74,3.58-27.23,8.17-40.43,13.75-18.68,7.9-36.34,17.6-52.86,29.02l-3.82-2.38c-2.41-1.5-5.54-1.15-7.54.86l-39.11,39.11c-1.98,1.98-2.35,5.08-.89,7.48-22.37,24.66-40.24,52.65-53.23,83.36-15.44,36.49-23.26,75.24-23.26,115.17s7.82,78.69,23.26,115.18c14.9,35.24,36.23,66.88,63.4,94.05,27.17,27.16,58.81,48.5,94.05,63.4,32.03,13.55,65.82,21.24,100.63,22.91v.02l.08,1.26,1.43,21.7,1.02,15.5c.29,4.46,5.4,6.83,9,4.19l12.51-9.2,32-23.52,10.92-8.03.03.06,11.56-8.56c17.46-3.85,34.55-9.3,51.17-16.33,2.63-1.11,5.24-2.27,7.83-3.46,4.21-2.54,8.53-4.88,13.19-6.64.2-.08.4-.1.6-.11,26.64-13.89,50.93-31.71,72.42-53.19,27.17-27.17,48.5-58.81,63.41-94.05,15.43-36.49,23.25-75.24,23.25-115.18,0-23.89-2.8-47.37-8.36-70.19l6.95-14.51,5.32-11.11.86-1.79c3.98-1.26,7.39-4.11,9.24-7.97l5.69-11.78c1.32-2.74,1.76-5.69,1.41-8.5,2.44-1.52,4.46-3.71,5.75-6.37l5.69-11.79c1.41-2.92,1.81-6.07,1.32-9.05,2.67-1.51,4.88-3.82,6.25-6.66l5.69-11.78c1.79-3.7,2.02-7.87.67-11.75-.5-1.43-1.2-2.76-2.07-3.96.86-.99,1.59-2.09,2.17-3.29l8.41-17.44ZM405.63,21.3c59.26,0,114.24,18.3,159.6,49.56-1.54,1.33-2.82,2.98-3.74,4.87l-5.69,11.79c-1.29,2.68-1.77,5.62-1.42,8.51-2.43,1.51-4.45,3.7-5.74,6.36l-5.68,11.78c-1.46,3.03-1.84,6.3-1.28,9.37l-1.75,3.65c-.31.66-3.48,7.22-9.44,19.54-2.14-4.02-4.43-7.95-6.87-11.8l18.94-30.39c1.5-2.41,1.15-5.54-.86-7.54l-39.11-39.11c-2-2.01-5.13-2.36-7.53-.86l-30.4,18.94c-17.99-11.41-37.81-19.65-58.58-24.36l-7.02-30.23c2.18-.05,4.37-.08,6.57-.08ZM568.07,198.17l-5.43,11.26-85.84,178.14-5.32,11.05-29.3,60.8-25.45,3.82-12.56-22.63c3.17-6.58,7.17-14.85,11.79-24.43,2.3-4.73,4.74-9.8,7.31-15.13,30.6-63.27,79.6-164.62,107.72-222.8,2.63-5.44,5.07-10.49,7.31-15.11,6.64-13.72,11.38-23.53,13.39-27.68l37.8,18.24-21.42,44.47ZM602.26,159.86l39.5,19.06h0s-147.32,305.74-147.32,305.74l-25.58,4.15-13.88-23.29h0s28.6-59.35,28.6-59.35l5.32-11.05,25.09-52.06h0s38.44-79.77,38.44-79.77l22.87-47.46,6.92-14.37,20.04-41.59ZM327.24,32.36l-4.47,19.26c-20.78,4.71-40.6,12.95-58.59,24.35l-13.38-8.34c23.3-15.36,49-27.35,76.44-35.27ZM123.92,303.01c0-71.28,26.47-136.38,70.13-186l11.17,17.92c-11.41,17.99-19.65,37.8-24.36,58.58l-34.79,8.07c-2.76.64-4.72,3.1-4.72,5.94v55.31c.01,2.83,1.96,5.28,4.72,5.92l34.79,8.07c4.71,20.77,12.95,40.59,24.36,58.58l-18.95,30.39c-1.5,2.41-1.14,5.53.86,7.54l39.11,39.11c2,2,5.13,2.36,7.54.86l30.4-18.94c17.99,11.41,37.8,19.64,58.57,24.36l8.07,34.78c.65,2.76,3.1,4.71,5.93,4.72h45.1v.19s5.96,90.42,5.96,90.42l2.34,35.46c-148.39-8.03-266.23-130.89-266.23-281.28ZM395.07,412.21l-6.53,28.14-1.32,5.7h-45.61l-7.85-33.83c-.54-2.32-2.38-4.12-4.72-4.6-21.93-4.49-42.79-13.17-61.44-25.55-1.99-1.31-4.57-1.35-6.59-.09l-29.57,18.41-32.26-32.25,18.44-29.57c1.26-2.03,1.23-4.6-.09-6.59-12.38-18.65-21.06-39.51-25.55-61.45-.48-2.33-2.28-4.18-4.6-4.71l-33.83-7.84v-45.61l33.83-7.86c2.32-.54,4.12-2.38,4.6-4.71,4.49-21.94,13.17-42.8,25.55-61.45,1.32-1.99,1.35-4.57.09-6.59l-15-24.06-3.44-5.51,32.26-32.25,8.43,5.26,21.14,13.17c2.02,1.26,4.6,1.22,6.59-.09,18.65-12.39,39.51-21.06,61.44-25.55,2.34-.48,4.18-2.28,4.72-4.61l6.8-29.26,1.05-4.54h45.61l7.87,33.8c.54,2.33,2.38,4.12,4.72,4.6,21.93,4.49,42.79,13.17,61.44,25.55,1.99,1.32,4.57,1.36,6.59.09l29.57-18.43,32.26,32.25-18.44,29.57c-1.26,2.03-1.22,4.6.09,6.59,4.71,7.1,8.88,14.51,12.49,22.19-1.38,2.85-2.83,5.87-4.35,9.01l-1.23,2.54c-28.12,58.18-77.12,159.53-107.72,222.8l-1.26,2.61c-1.49,3.1-2.93,6.1-4.34,8.98-1.7.41-3.41.79-5.12,1.14-2.34.48-4.18,2.28-4.72,4.6ZM438.79,597.04l-.05.04-32,23.52-1.43-21.7h0s-.93-14.17-.93-14.17v-.02l-1.95-29.58c.44-.14.89-.26,1.36-.39,16.52-4.45,38.85-3.54,52.17,25.5.1.21.2.42.3.64.11.26.23.53.35.8l.11.23s.02.06.04.09c.2.46.39.93.58,1.41l-18.55,13.63ZM469.06,574.8c-18.42-40.79-52.35-37.87-67.58-34.09l-5.48-83.23s.21-.43.61-1.27l12.49,22.51,34.19-5.14,18.33,30.76,33.74-5.47,15.73,29.52,27.05-4.77h0s-.31.64-.31.64l-68.76,50.54ZM503,567.44l43.21-31.76,2.86-2.1,1.53-3.2,4.07-8.5,64.35-134.33c3.81,8.87,13.11,14.86,23.59,13.67,10.47-1.18,18.88-9.62,20.04-20.09,1.52-13.73-9.25-25.39-22.68-25.39-2.12,0-4.17.29-6.11.84l49.2-102.7c2.81,15.95,4.28,32.37,4.28,49.13,0,121.37-76.73,224.79-184.34,264.43ZM641.43,370.03c3.58.59,6.47,3.48,7.06,7.06.97,5.91-4.07,10.95-9.98,9.98-3.58-.59-6.47-3.48-7.06-7.06-.97-5.91,4.07-10.95,9.98-9.98ZM687.32,212.19l-9.18,19.16-132.48,276.55-26.91,4.74-11.59-21.74,147.36-305.82h0s8.96,4.32,8.96,4.32l19.06,9.2,9.16,4.42-4.39,9.17ZM708.45,179.5l-5.28,10.93-4.36-2.11-11.22-5.43-14.77-7.16-4.55-2.2-12.97-6.29-3.8-1.84-48.43-23.46-44.17-21.39-2.66-1.29,5.17-10.71c.2-.43.64-.68,1.08-.68.07,0,.13.01.19.02.09.05.19.1.29.15l75.59,36.48,23.98,11.57,45.3,21.86c.12.06.24.11.36.16.36.35.48.91.25,1.39ZM721.29,152.84l-5.69,11.79c-.2.42-.63.68-1.08.68-.06,0-.11,0-.17-.02-.1-.06-.2-.11-.3-.16l-66.01-31.85-28.75-13.87-50.12-24.19c-.11-.05-.22-.1-.33-.14,0,0,0-.01-.01-.01-.37-.34-.5-.91-.26-1.39l5.68-11.79c.21-.43.64-.68,1.09-.68.17,0,.35.04.51.12l9.04,4.36h.01s41.04,19.81,41.04,19.81l94.79,45.74c.6.29.85,1.01.56,1.6ZM734.56,125.35l-5.69,11.78c-.21.43-.64.68-1.08.68-.18,0-.35-.04-.52-.12l-137.61-66.4h-.01s-7.26-3.51-7.26-3.51c-.59-.28-.84-1-.56-1.6l.32-.67,5.37-11.11c.21-.43.64-.68,1.08-.68.18,0,.35.04.52.12l144.88,69.9c.59.29.84,1.01.56,1.61ZM743.74,88.91l-8.42,17.44c-.2.43-.64.68-1.08.68-.18,0-.35-.04-.52-.12l-131.25-63.33c-.59-.29-.84-1.01-.56-1.6l8.42-17.44c3.15-6.54,9.74-10.36,16.57-10.36,2.67,0,5.37.58,7.92,1.81l100.37,48.43c9.08,4.38,12.93,15.41,8.55,24.49Z"/>
        <path class="cls-24" d="M62.51,371.16c-19.56,0-35.48,15.91-35.48,35.47s15.92,35.48,35.48,35.48,35.47-15.92,35.47-35.48-15.91-35.47-35.47-35.47ZM62.51,427.93c-11.77,0-21.3-9.53-21.3-21.3s9.53-21.3,21.3-21.3,21.3,9.54,21.3,21.3-9.54,21.3-21.3,21.3Z"/>
        <path class="cls-24" d="M69.6,479.19c-12.58,0-22.81,10.24-22.81,22.82s10.23,22.81,22.81,22.81,22.82-10.23,22.82-22.81-10.24-22.82-22.82-22.82ZM69.6,510.65c-4.77,0-8.64-3.87-8.64-8.64s3.87-8.64,8.64-8.64,8.64,3.87,8.64,8.64-3.87,8.64-8.64,8.64Z"/>
        <path class="cls-24" d="M712.24,463.13c0-10.76-8.75-19.51-19.5-19.51s-19.51,8.75-19.51,19.51,8.75,19.5,19.51,19.5,19.5-8.75,19.5-19.5ZM687.4,463.13c0-2.95,2.39-5.33,5.34-5.33s5.33,2.38,5.33,5.33-2.39,5.33-5.33,5.33-5.34-2.39-5.34-5.33Z"/>
        <path class="cls-24" d="M68.37,227.29c12.58,0,22.81-10.23,22.81-22.81s-10.23-22.82-22.81-22.82-22.82,10.24-22.82,22.82,10.24,22.81,22.82,22.81ZM68.37,195.84c4.77,0,8.64,3.86,8.64,8.64s-3.87,8.64-8.64,8.64-8.65-3.87-8.65-8.64,3.87-8.64,8.65-8.64Z"/>
        <path class="cls-24" d="M121.45,145.81c12.58,0,22.82-10.23,22.82-22.81s-10.24-22.82-22.82-22.82-22.81,10.24-22.81,22.82,10.23,22.81,22.81,22.81ZM121.45,114.35c4.78,0,8.64,3.87,8.64,8.65s-3.86,8.64-8.64,8.64-8.64-3.87-8.64-8.64,3.87-8.65,8.64-8.65Z"/>
        <path class="cls-24" d="M231.33,426.11c-17.35,0-31.46,14.11-31.46,31.45s14.11,31.46,31.46,31.46,31.46-14.11,31.46-31.46-14.12-31.45-31.46-31.45ZM231.33,474.85c-9.55,0-17.28-7.74-17.28-17.29s7.73-17.28,17.28-17.28,17.28,7.74,17.28,17.28-7.74,17.29-17.28,17.29Z"/>
        <path class="cls-24" d="M309.11,474.25c-17.35,0-31.46,14.12-31.46,31.46s14.11,31.46,31.46,31.46,31.45-14.11,31.45-31.46-14.11-31.46-31.45-31.46ZM309.11,523c-9.55,0-17.29-7.74-17.29-17.29s7.74-17.28,17.29-17.28,17.28,7.74,17.28,17.28-7.74,17.29-17.28,17.29Z"/>
        <path class="cls-24" d="M62.51,339.64c19.56,0,35.47-15.92,35.47-35.48s-15.91-35.47-35.47-35.47-35.48,15.91-35.48,35.47,15.92,35.48,35.48,35.48ZM62.51,282.86c11.76,0,21.3,9.54,21.3,21.3s-9.54,21.31-21.3,21.31-21.3-9.54-21.3-21.31,9.53-21.3,21.3-21.3Z"/>
        <path class="cls-24" d="M750.16,374.86c-19.56,0-35.47,15.91-35.47,35.48s15.91,35.47,35.47,35.47,35.48-15.91,35.48-35.47-15.92-35.48-35.48-35.48ZM750.16,431.64c-11.76,0-21.3-9.54-21.3-21.3s9.54-21.31,21.3-21.31,21.3,9.54,21.3,21.31-9.53,21.3-21.3,21.3Z"/>
        <path class="cls-24" d="M750.16,461.28c-19.56,0-35.47,15.91-35.47,35.48s15.91,35.47,35.47,35.47,35.48-15.91,35.48-35.47-15.92-35.48-35.48-35.48ZM750.16,518.06c-11.76,0-21.3-9.54-21.3-21.3s9.54-21.31,21.3-21.31,21.3,9.54,21.3,21.31-9.53,21.3-21.3,21.3Z"/>
        <path class="cls-24" d="M364.41,341.54c58.75,0,106.37-47.63,106.37-106.37-.07-58.72-47.65-106.3-106.37-106.37-58.75,0-106.37,47.62-106.37,106.37s47.62,106.37,106.37,106.37ZM364.41,139.75c52.7,0,95.42,42.72,95.42,95.42-.06,52.67-42.75,95.36-95.42,95.42-52.7,0-95.42-42.72-95.42-95.42s42.72-95.42,95.42-95.42Z"/>
        <path class="cls-24" d="M303.18,247.61l7.97,1.85c1.28,4.89,3.22,9.55,5.78,13.9l-4.34,6.97c-1.12,1.79-.86,4.09.64,5.59l10.87,10.87c1.5,1.5,3.8,1.77,5.6.64l6.96-4.34c4.36,2.57,9.02,4.51,13.9,5.78l1.85,7.97c.48,2.06,2.29,3.5,4.41,3.51h15.39c2.11-.01,3.92-1.45,4.4-3.51l1.84-7.97c4.89-1.27,9.55-3.21,13.9-5.78l6.97,4.34c1.8,1.13,4.1.86,5.6-.64l10.87-10.87c1.5-1.5,1.76-3.8.64-5.6l-4.34-6.96c2.56-4.35,4.5-9.01,5.78-13.9l7.97-1.85c2.05-.47,3.49-2.28,3.5-4.4v-15.37c0-2.12-1.43-3.93-3.49-4.42l-7.98-1.85c-1.28-4.88-3.21-9.55-5.78-13.9l4.34-6.96c1.12-1.8.86-4.1-.64-5.6l-10.87-10.87c-1.5-1.5-3.8-1.76-5.6-.64l-6.96,4.34c-4.35-2.56-9.01-4.5-13.9-5.78l-1.85-7.97c-.48-2.06-2.3-3.5-4.41-3.5h-15.38c-2.12,0-3.92,1.45-4.4,3.5l-1.85,7.97c-4.89,1.28-9.55,3.22-13.9,5.78l-6.97-4.34c-1.8-1.12-4.1-.86-5.6.64l-10.87,10.87c-1.5,1.5-1.76,3.8-.64,5.6l4.34,6.96c-2.56,4.35-4.5,9.02-5.78,13.9l-7.97,1.85c-2.06.48-3.5,2.3-3.5,4.41v15.38c0,2.12,1.45,3.92,3.5,4.4ZM319.36,226.26c1.18-5.77,3.43-11.18,6.69-16.09.97-1.47,1-3.39.07-4.89l-3.94-6.31,5.78-5.78,6.31,3.93c1.5.94,3.42.91,4.9-.07,4.9-3.25,10.31-5.5,16.08-6.68,1.73-.36,3.1-1.7,3.5-3.42l1.68-7.2h8.17l1.68,7.2c.39,1.72,1.77,3.06,3.5,3.41,5.77,1.19,11.18,3.44,16.08,6.69,1.48.98,3.4,1,4.9.07l6.31-3.93,5.77,5.78-3.93,6.31c-.93,1.5-.91,3.42.07,4.89,3.26,4.91,5.51,10.32,6.69,16.09.35,1.72,1.69,3.1,3.41,3.5l7.21,1.67v8.18l-7.21,1.67c-1.72.4-3.06,1.77-3.42,3.5-1.18,5.77-3.43,11.18-6.68,16.08-.98,1.48-1.01,3.4-.07,4.9l3.93,6.31-5.78,5.78-6.31-3.94c-1.5-.93-3.42-.9-4.9.07-4.9,3.26-10.31,5.51-16.07,6.69-1.73.35-3.11,1.69-3.51,3.42l-1.67,7.21h-8.17l-1.68-7.21c-.4-1.72-1.77-3.06-3.5-3.42-5.77-1.18-11.18-3.43-16.08-6.69-1.48-.97-3.4-1-4.9-.06l-6.31,3.92-5.78-5.77,3.94-6.31c.93-1.5.9-3.42-.07-4.9-3.26-4.9-5.51-10.31-6.69-16.08-.35-1.73-1.69-3.11-3.42-3.5l-7.2-1.67v-8.18l7.21-1.67c1.72-.4,3.06-1.78,3.41-3.5Z"/>
        <path class="cls-24" d="M382.1,217.93c-4.71-4.7-10.96-7.3-17.59-7.31-13.73,0-24.9,11.17-24.9,24.9s11.17,24.9,24.9,24.9,24.9-11.17,24.9-24.9c0-6.63-2.6-12.87-7.31-17.59ZM380.26,235.52c-.01,8.67-7.08,15.74-15.75,15.75-8.68,0-15.75-7.07-15.75-15.75s7.06-15.75,15.75-15.75,15.75,7.06,15.75,15.75Z"/>
        <circle class="cls-24" cx="106.79" cy="170.71" r="9.17" transform="translate(-91.79 204.05) rotate(-67.5)"/>
        <circle class="cls-24" cx="38" cy="250.51" r="6.42"/>
        <circle class="cls-24" cx="89.37" cy="250.51" r="6.42" transform="translate(-55.16 27.23) rotate(-13.28)"/>
        <circle class="cls-24" cx="116.88" cy="500.9" r="6.42" transform="translate(-111.96 40.25) rotate(-13.28)"/>
        <circle class="cls-24" cx="173.75" cy="558.69" r="6.42" transform="translate(-123.71 54.86) rotate(-13.28)"/>
        <circle class="cls-24" cx="202.18" cy="587.12" r="6.42"/>
        <circle class="cls-24" cx="248.96" cy="592.62" r="6.42" transform="translate(-91.71 47.53) rotate(-9.22)"/>
        <circle class="cls-24" cx="603" cy="453.21" r="6.42" transform="translate(-88 150.66) rotate(-13.28)"/>
        <circle class="cls-24" cx="693.8" cy="502.74" r="6.42" transform="translate(-152.28 637.84) rotate(-45)"/>
        <circle class="cls-24" cx="670.87" cy="552.27" r="6.42" transform="translate(-79.8 114.59) rotate(-9.22)"/>
        <circle class="cls-24" cx="705.72" cy="557.77" r="6.42" transform="translate(-187.7 662.39) rotate(-45)"/>
        <circle class="cls-24" cx="798.36" cy="414.69" r="6.42" transform="translate(-73.92 194.52) rotate(-13.28)"/>
        <circle class="cls-24" cx="782.77" cy="254.18" r="6.42" transform="translate(49.54 627.95) rotate(-45)"/>
        <circle class="cls-24" cx="746.08" cy="166.13" r="6.42" transform="translate(-18.21 175.86) rotate(-13.28)"/>
        <circle class="cls-24" cx="561.72" cy="34.97" r="6.42" transform="translate(6.99 129.99) rotate(-13.28)"/>
        <circle class="cls-24" cx="749.75" cy="553.18" r="9.17" transform="translate(-171.56 692.18) rotate(-45)"/>
        <circle class="cls-24" cx="712.14" cy="582.53" r="9.17" transform="translate(-98.57 1017.54) rotate(-67.5)"/>
        <circle class="cls-24" cx="123.76" cy="528.88" r="5.04" transform="translate(-118.2 42.58) rotate(-13.28)"/>
        <rect class="cls-24" x="20.58" y="355.99" width="80.71" height="8.25" rx="4.13" ry="4.13"/>
        <path class="cls-24" d="M717.68,368.83h82.24c2.27,0,4.13-1.86,4.13-4.13s-1.86-4.13-4.13-4.13h-82.24c-2.27,0-4.13,1.86-4.13,4.13s1.86,4.13,4.13,4.13Z"/>
        <path class="cls-24" d="M771.56,302.18c-2.28,0-4.13,1.85-4.13,4.13v20.64c0,2.28,1.85,4.13,4.13,4.13s4.13-1.85,4.13-4.13v-20.64c0-2.28-1.85-4.13-4.13-4.13Z"/>
        <path class="cls-24" d="M746.03,302.18c-2.28,0-4.13,1.85-4.13,4.13v20.64c0,2.28,1.85,4.13,4.13,4.13s4.13-1.85,4.13-4.13v-20.64c0-2.28-1.85-4.13-4.13-4.13Z"/>
        <path class="cls-24" d="M59.56,238.2v20.64c0,2.28,1.85,4.13,4.13,4.13s4.13-1.85,4.13-4.13v-20.64c0-2.28-1.85-4.13-4.13-4.13s-4.13,1.85-4.13,4.13Z"/>
        <path class="cls-24" d="M125.37,457.8H30.89c-2.27,0-4.13,1.86-4.13,4.13s1.86,4.13,4.13,4.13h94.47c2.27,0,4.13-1.86,4.13-4.13s-1.86-4.13-4.13-4.13Z"/>
        <path class="cls-24" d="M790.3,280.82h-62.99c-8.48,0-15.37,6.9-15.37,15.37v40.25c0,8.48,6.89,15.38,15.37,15.38h62.99c8.47,0,15.37-6.9,15.37-15.38v-40.25c0-8.47-6.9-15.37-15.37-15.37ZM791.5,336.44c0,.66-.54,1.2-1.2,1.2h-62.99c-.66,0-1.2-.54-1.2-1.2v-40.25c0-.66.54-1.2,1.2-1.2h62.99c.66,0,1.2.54,1.2,1.2v40.25Z"/>
        <path class="cls-24" d="M787.73,217.49h-19.33l-17.11-33.53c-.97-1.9-2.92-3.09-5.05-3.09-.03,0-.05,0-.08,0-2.16.03-4.11,1.29-5.04,3.24-6.06,12.77-15.27,32.13-15.77,33.15-.04.08-.07.16-.11.24h-19.75c-2.27,0-4.13,1.86-4.13,4.13s1.86,4.13,4.13,4.13h19.86s.02.04.02.05l17.2,33.71c.97,1.9,2.92,3.09,5.05,3.09.03,0,.05,0,.08,0,2.16-.03,4.11-1.29,5.04-3.24,6.06-12.77,15.26-32.13,15.77-33.15.08-.15.14-.31.21-.47h19.02c2.27,0,4.13-1.86,4.13-4.13s-1.86-4.13-4.13-4.13ZM747.44,244.1l-11.22-22.63s7.32-16.02,10.21-22.1l11.23,22.1s-7.28,16.45-10.22,22.63Z"/>
      </g>
    </g>
  </g>
</svg>